<mxfile host="app.diagrams.net" agent="Mozilla/5.0 (Windows NT 10.0; Win64; x64; rv:138.0) Gecko/20100101 Firefox/138.0" version="26.2.8" pages="5">
  <diagram name="Page-1" id="2YBvvXClWsGukQMizWep">
    <mxGraphModel dx="2390" dy="1252" grid="1" gridSize="10" guides="1" tooltips="1" connect="1" arrows="1" fold="1" page="1" pageScale="1" pageWidth="850" pageHeight="1100" math="0" shadow="0">
      <root>
        <mxCell id="0" />
        <mxCell id="1" parent="0" />
        <mxCell id="4CpXwD7XyZUz4gk19xab-3" value="Agency" style="shape=umlLifeline;perimeter=lifelinePerimeter;whiteSpace=wrap;container=1;dropTarget=0;collapsible=0;recursiveResize=0;outlineConnect=0;portConstraint=eastwest;newEdgeStyle={&quot;edgeStyle&quot;:&quot;elbowEdgeStyle&quot;,&quot;elbow&quot;:&quot;vertical&quot;,&quot;curved&quot;:0,&quot;rounded&quot;:0};size=65;" parent="1" vertex="1">
          <mxGeometry x="73" y="370" width="150" height="1588" as="geometry" />
        </mxCell>
        <mxCell id="4CpXwD7XyZUz4gk19xab-4" value="System" style="shape=umlLifeline;perimeter=lifelinePerimeter;whiteSpace=wrap;container=1;dropTarget=0;collapsible=0;recursiveResize=0;outlineConnect=0;portConstraint=eastwest;newEdgeStyle={&quot;edgeStyle&quot;:&quot;elbowEdgeStyle&quot;,&quot;elbow&quot;:&quot;vertical&quot;,&quot;curved&quot;:0,&quot;rounded&quot;:0};size=65;" parent="1" vertex="1">
          <mxGeometry x="393" y="370" width="150" height="1588" as="geometry" />
        </mxCell>
        <mxCell id="4CpXwD7XyZUz4gk19xab-5" value="SuperAdmin" style="shape=umlLifeline;perimeter=lifelinePerimeter;whiteSpace=wrap;container=1;dropTarget=0;collapsible=0;recursiveResize=0;outlineConnect=0;portConstraint=eastwest;newEdgeStyle={&quot;edgeStyle&quot;:&quot;elbowEdgeStyle&quot;,&quot;elbow&quot;:&quot;vertical&quot;,&quot;curved&quot;:0,&quot;rounded&quot;:0};size=65;" parent="1" vertex="1">
          <mxGeometry x="639" y="370" width="150" height="1588" as="geometry" />
        </mxCell>
        <mxCell id="4CpXwD7XyZUz4gk19xab-6" value="Hotel" style="shape=umlLifeline;perimeter=lifelinePerimeter;whiteSpace=wrap;container=1;dropTarget=0;collapsible=0;recursiveResize=0;outlineConnect=0;portConstraint=eastwest;newEdgeStyle={&quot;edgeStyle&quot;:&quot;elbowEdgeStyle&quot;,&quot;elbow&quot;:&quot;vertical&quot;,&quot;curved&quot;:0,&quot;rounded&quot;:0};size=65;" parent="1" vertex="1">
          <mxGeometry x="839" y="370" width="150" height="1588" as="geometry" />
        </mxCell>
        <mxCell id="4CpXwD7XyZUz4gk19xab-8" value="alt" style="shape=umlFrame;dashed=1;pointerEvents=0;dropTarget=0;strokeColor=#B3B3B3;height=20;width=30" parent="1" vertex="1">
          <mxGeometry x="137" y="539" width="417" height="224" as="geometry" />
        </mxCell>
        <mxCell id="4CpXwD7XyZUz4gk19xab-9" value="[First Login]" style="text;strokeColor=none;fillColor=none;align=center;verticalAlign=middle;whiteSpace=wrap;" parent="4CpXwD7XyZUz4gk19xab-8" vertex="1">
          <mxGeometry x="30" width="387" height="20" as="geometry" />
        </mxCell>
        <mxCell id="4CpXwD7XyZUz4gk19xab-10" value="alt" style="shape=umlFrame;dashed=1;pointerEvents=0;dropTarget=0;strokeColor=#B3B3B3;height=20;width=30" parent="1" vertex="1">
          <mxGeometry x="137" y="1046" width="788" height="354" as="geometry" />
        </mxCell>
        <mxCell id="4CpXwD7XyZUz4gk19xab-11" value="[Payment Valid]" style="text;strokeColor=none;fillColor=none;align=center;verticalAlign=middle;whiteSpace=wrap;" parent="4CpXwD7XyZUz4gk19xab-10" vertex="1">
          <mxGeometry x="30" width="758" height="20.823529411764707" as="geometry" />
        </mxCell>
        <mxCell id="4CpXwD7XyZUz4gk19xab-12" value="[Payment Invalid]" style="shape=line;dashed=1;whiteSpace=wrap;verticalAlign=top;labelPosition=center;verticalLabelPosition=middle;align=center;strokeColor=#B3B3B3;" parent="4CpXwD7XyZUz4gk19xab-10" vertex="1">
          <mxGeometry y="220" width="788" height="20.51" as="geometry" />
        </mxCell>
        <mxCell id="4CpXwD7XyZUz4gk19xab-15" value="Login" style="verticalAlign=bottom;edgeStyle=elbowEdgeStyle;elbow=vertical;curved=0;rounded=0;endArrow=block;" parent="1" source="4CpXwD7XyZUz4gk19xab-3" target="4CpXwD7XyZUz4gk19xab-4" edge="1">
          <mxGeometry relative="1" as="geometry">
            <Array as="points">
              <mxPoint x="317" y="467" />
            </Array>
          </mxGeometry>
        </mxCell>
        <mxCell id="4CpXwD7XyZUz4gk19xab-16" value="Check first login?" style="verticalAlign=bottom;edgeStyle=elbowEdgeStyle;elbow=vertical;curved=0;rounded=0;dashed=1;dashPattern=2 3;endArrow=block;" parent="1" edge="1">
          <mxGeometry relative="1" as="geometry">
            <Array as="points">
              <mxPoint x="320" y="487" />
            </Array>
            <mxPoint x="467.5" y="487" as="sourcePoint" />
            <mxPoint x="147.5" y="487" as="targetPoint" />
          </mxGeometry>
        </mxCell>
        <mxCell id="4CpXwD7XyZUz4gk19xab-17" value="Show Welcome Page" style="verticalAlign=bottom;edgeStyle=elbowEdgeStyle;elbow=vertical;curved=0;rounded=0;endArrow=block;" parent="1" source="4CpXwD7XyZUz4gk19xab-4" target="4CpXwD7XyZUz4gk19xab-3" edge="1">
          <mxGeometry relative="1" as="geometry">
            <Array as="points">
              <mxPoint x="320" y="617" />
            </Array>
          </mxGeometry>
        </mxCell>
        <mxCell id="4CpXwD7XyZUz4gk19xab-18" value="Fill missing details" style="verticalAlign=bottom;edgeStyle=elbowEdgeStyle;elbow=vertical;curved=0;rounded=0;endArrow=block;" parent="1" source="4CpXwD7XyZUz4gk19xab-3" target="4CpXwD7XyZUz4gk19xab-4" edge="1">
          <mxGeometry relative="1" as="geometry">
            <Array as="points">
              <mxPoint x="317" y="669" />
            </Array>
          </mxGeometry>
        </mxCell>
        <mxCell id="4CpXwD7XyZUz4gk19xab-19" value="Save agency details" style="curved=1;endArrow=block;rounded=0;" parent="1" source="4CpXwD7XyZUz4gk19xab-4" target="4CpXwD7XyZUz4gk19xab-4" edge="1">
          <mxGeometry relative="1" as="geometry">
            <Array as="points">
              <mxPoint x="519" y="721" />
              <mxPoint x="519" y="751" />
            </Array>
          </mxGeometry>
        </mxCell>
        <mxCell id="4CpXwD7XyZUz4gk19xab-20" value="Redirect to Dashboard" style="verticalAlign=bottom;edgeStyle=elbowEdgeStyle;elbow=vertical;curved=0;rounded=0;dashed=1;dashPattern=2 3;endArrow=block;" parent="1" edge="1">
          <mxGeometry relative="1" as="geometry">
            <Array as="points">
              <mxPoint x="320" y="787" />
            </Array>
            <mxPoint x="467.5" y="787" as="sourcePoint" />
            <mxPoint x="147.5" y="787" as="targetPoint" />
          </mxGeometry>
        </mxCell>
        <mxCell id="4CpXwD7XyZUz4gk19xab-21" value="Browse Hotels" style="verticalAlign=bottom;edgeStyle=elbowEdgeStyle;elbow=vertical;curved=0;rounded=0;endArrow=block;" parent="1" edge="1">
          <mxGeometry relative="1" as="geometry">
            <Array as="points">
              <mxPoint x="317" y="831" />
            </Array>
            <mxPoint x="147.5" y="831" as="sourcePoint" />
            <mxPoint x="467.5" y="831" as="targetPoint" />
          </mxGeometry>
        </mxCell>
        <mxCell id="4CpXwD7XyZUz4gk19xab-22" value="Select Hotel &amp; Rate Plan" style="verticalAlign=bottom;edgeStyle=elbowEdgeStyle;elbow=vertical;curved=0;rounded=0;endArrow=block;" parent="1" edge="1">
          <mxGeometry relative="1" as="geometry">
            <Array as="points">
              <mxPoint x="317" y="892" />
            </Array>
            <mxPoint x="147.5" y="892" as="sourcePoint" />
            <mxPoint x="467.5" y="892" as="targetPoint" />
          </mxGeometry>
        </mxCell>
        <mxCell id="4CpXwD7XyZUz4gk19xab-24" value="Register reservation" style="verticalAlign=bottom;edgeStyle=elbowEdgeStyle;elbow=vertical;curved=0;rounded=0;endArrow=block;" parent="1" edge="1">
          <mxGeometry relative="1" as="geometry">
            <Array as="points">
              <mxPoint x="317" y="957" />
            </Array>
            <mxPoint x="147.5" y="957" as="sourcePoint" />
            <mxPoint x="467.5" y="957" as="targetPoint" />
          </mxGeometry>
        </mxCell>
        <mxCell id="4CpXwD7XyZUz4gk19xab-25" value="Notify reservation Received" style="verticalAlign=bottom;edgeStyle=elbowEdgeStyle;elbow=vertical;curved=0;rounded=0;endArrow=block;" parent="1" edge="1">
          <mxGeometry relative="1" as="geometry">
            <Array as="points">
              <mxPoint x="600" y="984" />
            </Array>
            <mxPoint x="467.5" y="984" as="sourcePoint" />
            <mxPoint x="713.5" y="984" as="targetPoint" />
          </mxGeometry>
        </mxCell>
        <mxCell id="4CpXwD7XyZUz4gk19xab-26" value="Review Reservation" style="verticalAlign=bottom;edgeStyle=elbowEdgeStyle;elbow=vertical;curved=0;rounded=0;endArrow=block;" parent="1" edge="1">
          <mxGeometry relative="1" as="geometry">
            <Array as="points">
              <mxPoint x="603" y="1024" />
            </Array>
            <mxPoint x="713.5" y="1024" as="sourcePoint" />
            <mxPoint x="467.5" y="1024" as="targetPoint" />
          </mxGeometry>
        </mxCell>
        <mxCell id="4CpXwD7XyZUz4gk19xab-27" value="Confirm Reservation" style="verticalAlign=bottom;edgeStyle=elbowEdgeStyle;elbow=vertical;curved=0;rounded=0;endArrow=block;" parent="1" edge="1">
          <mxGeometry relative="1" as="geometry">
            <Array as="points">
              <mxPoint x="603" y="1123" />
            </Array>
            <mxPoint x="713.5" y="1123" as="sourcePoint" />
            <mxPoint x="467.4473684210525" y="1123" as="targetPoint" />
          </mxGeometry>
        </mxCell>
        <mxCell id="4CpXwD7XyZUz4gk19xab-28" value="Update Reservation Status" style="curved=1;endArrow=block;rounded=0;" parent="1" edge="1">
          <mxGeometry relative="1" as="geometry">
            <Array as="points">
              <mxPoint x="519" y="1165" />
              <mxPoint x="519" y="1195" />
            </Array>
            <mxPoint x="467.4473684210525" y="1165" as="sourcePoint" />
            <mxPoint x="467.4473684210525" y="1195" as="targetPoint" />
          </mxGeometry>
        </mxCell>
        <mxCell id="4CpXwD7XyZUz4gk19xab-29" value="Send Reservation Email" style="verticalAlign=bottom;edgeStyle=elbowEdgeStyle;elbow=vertical;curved=0;rounded=0;endArrow=block;" parent="1" edge="1">
          <mxGeometry relative="1" as="geometry">
            <Array as="points">
              <mxPoint x="700" y="1257" />
            </Array>
            <mxPoint x="467.4473684210525" y="1257" as="sourcePoint" />
            <mxPoint x="913.5" y="1257" as="targetPoint" />
          </mxGeometry>
        </mxCell>
        <mxCell id="4CpXwD7XyZUz4gk19xab-30" value="Request Correct Proof" style="verticalAlign=bottom;edgeStyle=elbowEdgeStyle;elbow=vertical;curved=0;rounded=0;endArrow=block;" parent="1" edge="1">
          <mxGeometry relative="1" as="geometry">
            <Array as="points">
              <mxPoint x="443" y="1375" />
            </Array>
            <mxPoint x="713.5" y="1375" as="sourcePoint" />
            <mxPoint x="148" y="1370" as="targetPoint" />
          </mxGeometry>
        </mxCell>
        <mxCell id="4CpXwD7XyZUz4gk19xab-31" value="Open Reservation code interface" style="verticalAlign=bottom;edgeStyle=elbowEdgeStyle;elbow=vertical;curved=0;rounded=0;endArrow=block;" parent="1" edge="1">
          <mxGeometry relative="1" as="geometry">
            <Array as="points">
              <mxPoint x="703" y="1427" />
            </Array>
            <mxPoint x="913.5" y="1427" as="sourcePoint" />
            <mxPoint x="467.4473684210525" y="1427" as="targetPoint" />
          </mxGeometry>
        </mxCell>
        <mxCell id="4CpXwD7XyZUz4gk19xab-32" value="Enter Reservation Code" style="verticalAlign=bottom;edgeStyle=elbowEdgeStyle;elbow=vertical;curved=0;rounded=0;endArrow=block;" parent="1" edge="1">
          <mxGeometry relative="1" as="geometry">
            <Array as="points">
              <mxPoint x="703" y="1569" />
            </Array>
            <mxPoint x="913.5" y="1569" as="sourcePoint" />
            <mxPoint x="467.4473684210525" y="1569" as="targetPoint" />
          </mxGeometry>
        </mxCell>
        <mxCell id="4CpXwD7XyZUz4gk19xab-34" value="Send Confirmation Email with Code" style="verticalAlign=bottom;edgeStyle=elbowEdgeStyle;elbow=vertical;curved=0;rounded=0;endArrow=block;" parent="1" edge="1">
          <mxGeometry relative="1" as="geometry">
            <Array as="points">
              <mxPoint x="320" y="1593" />
            </Array>
            <mxPoint x="467.5" y="1593" as="sourcePoint" />
            <mxPoint x="147.63043478260875" y="1593" as="targetPoint" />
          </mxGeometry>
        </mxCell>
        <mxCell id="dnW2ma6gteRVVmG-9UX6-1" value="Cancel Reservation" style="verticalAlign=bottom;edgeStyle=elbowEdgeStyle;elbow=vertical;curved=0;rounded=0;endArrow=block;" edge="1" parent="1">
          <mxGeometry relative="1" as="geometry">
            <Array as="points">
              <mxPoint x="603" y="1308" />
            </Array>
            <mxPoint x="714" y="1308" as="sourcePoint" />
            <mxPoint x="467" y="1308" as="targetPoint" />
          </mxGeometry>
        </mxCell>
        <mxCell id="dnW2ma6gteRVVmG-9UX6-2" value="Check Reservation Status" style="verticalAlign=bottom;edgeStyle=elbowEdgeStyle;elbow=vertical;curved=0;rounded=0;endArrow=block;" edge="1" parent="1">
          <mxGeometry relative="1" as="geometry">
            <Array as="points">
              <mxPoint x="317" y="1917" />
            </Array>
            <mxPoint x="147.5" y="1917" as="sourcePoint" />
            <mxPoint x="467.5" y="1917" as="targetPoint" />
          </mxGeometry>
        </mxCell>
        <mxCell id="dnW2ma6gteRVVmG-9UX6-3" value="Update Reservation Status" style="curved=1;endArrow=block;rounded=0;" edge="1" parent="1">
          <mxGeometry relative="1" as="geometry">
            <Array as="points">
              <mxPoint x="519" y="1325" />
              <mxPoint x="519" y="1355" />
            </Array>
            <mxPoint x="467.4473684210525" y="1325" as="sourcePoint" />
            <mxPoint x="467.4473684210525" y="1355" as="targetPoint" />
          </mxGeometry>
        </mxCell>
        <mxCell id="dnW2ma6gteRVVmG-9UX6-5" value="Check authentication" style="verticalAlign=bottom;edgeStyle=elbowEdgeStyle;elbow=vertical;curved=0;rounded=0;dashed=1;dashPattern=2 3;endArrow=block;" edge="1" parent="1" source="4CpXwD7XyZUz4gk19xab-4" target="4CpXwD7XyZUz4gk19xab-6">
          <mxGeometry relative="1" as="geometry">
            <Array as="points">
              <mxPoint x="640" y="1457" />
            </Array>
            <mxPoint x="787.5" y="1457" as="sourcePoint" />
            <mxPoint x="467.5" y="1457" as="targetPoint" />
          </mxGeometry>
        </mxCell>
        <mxCell id="dnW2ma6gteRVVmG-9UX6-13" value="alt" style="shape=umlFrame;dashed=1;pointerEvents=0;dropTarget=0;strokeColor=#B3B3B3;height=20;width=30" vertex="1" parent="1">
          <mxGeometry x="80" y="1476" width="920" height="404" as="geometry" />
        </mxCell>
        <mxCell id="dnW2ma6gteRVVmG-9UX6-14" value="[authentication valid]" style="text;strokeColor=none;fillColor=none;align=center;verticalAlign=middle;whiteSpace=wrap;" vertex="1" parent="dnW2ma6gteRVVmG-9UX6-13">
          <mxGeometry x="35.0253807106599" width="884.9746192893401" height="23.764705882352942" as="geometry" />
        </mxCell>
        <mxCell id="dnW2ma6gteRVVmG-9UX6-15" value="[authentication Invalid]" style="shape=line;dashed=1;whiteSpace=wrap;verticalAlign=top;labelPosition=center;verticalLabelPosition=middle;align=center;strokeColor=#B3B3B3;" vertex="1" parent="dnW2ma6gteRVVmG-9UX6-13">
          <mxGeometry y="269.7294117647059" width="920" height="4.752941176470588" as="geometry" />
        </mxCell>
        <mxCell id="dnW2ma6gteRVVmG-9UX6-16" value="Check access" style="verticalAlign=bottom;edgeStyle=elbowEdgeStyle;elbow=vertical;curved=0;rounded=0;dashed=1;dashPattern=2 3;endArrow=block;" edge="1" parent="1">
          <mxGeometry relative="1" as="geometry">
            <Array as="points">
              <mxPoint x="639" y="1507" />
            </Array>
            <mxPoint x="467" y="1507" as="sourcePoint" />
            <mxPoint x="913" y="1507" as="targetPoint" />
          </mxGeometry>
        </mxCell>
        <mxCell id="dnW2ma6gteRVVmG-9UX6-17" value="alt" style="shape=umlFrame;dashed=1;pointerEvents=0;dropTarget=0;strokeColor=#B3B3B3;height=20;width=30" vertex="1" parent="1">
          <mxGeometry x="120" y="1526" width="840" height="184" as="geometry" />
        </mxCell>
        <mxCell id="dnW2ma6gteRVVmG-9UX6-18" value="[access valid]" style="text;strokeColor=none;fillColor=none;align=center;verticalAlign=middle;whiteSpace=wrap;" vertex="1" parent="dnW2ma6gteRVVmG-9UX6-17">
          <mxGeometry x="31.979695431472084" width="808.0203045685279" height="14.383900928792569" as="geometry" />
        </mxCell>
        <mxCell id="dnW2ma6gteRVVmG-9UX6-19" value="[access invalid]" style="shape=line;dashed=1;whiteSpace=wrap;verticalAlign=top;labelPosition=center;verticalLabelPosition=middle;align=center;strokeColor=#B3B3B3;" vertex="1" parent="dnW2ma6gteRVVmG-9UX6-17">
          <mxGeometry y="87.15756097560977" width="840" height="2.87219512195122" as="geometry" />
        </mxCell>
        <mxCell id="dnW2ma6gteRVVmG-9UX6-21" value="Show Forbidden Message" style="verticalAlign=bottom;edgeStyle=elbowEdgeStyle;elbow=vertical;curved=0;rounded=0;endArrow=block;" edge="1" parent="1" target="4CpXwD7XyZUz4gk19xab-6">
          <mxGeometry relative="1" as="geometry">
            <Array as="points" />
            <mxPoint x="470" y="1650" as="sourcePoint" />
            <mxPoint x="910" y="1650" as="targetPoint" />
          </mxGeometry>
        </mxCell>
        <mxCell id="dnW2ma6gteRVVmG-9UX6-22" value="Redirect to Home page" style="verticalAlign=bottom;edgeStyle=elbowEdgeStyle;elbow=vertical;curved=0;rounded=0;endArrow=block;dashed=1;" edge="1" parent="1" target="4CpXwD7XyZUz4gk19xab-6">
          <mxGeometry relative="1" as="geometry">
            <Array as="points">
              <mxPoint x="910" y="1690" />
            </Array>
            <mxPoint x="467.63043478260875" y="1687" as="sourcePoint" />
            <mxPoint x="900" y="1690" as="targetPoint" />
          </mxGeometry>
        </mxCell>
        <mxCell id="dnW2ma6gteRVVmG-9UX6-24" value="Show Unauthorized Message" style="verticalAlign=bottom;edgeStyle=elbowEdgeStyle;elbow=vertical;curved=0;rounded=0;endArrow=block;" edge="1" parent="1">
          <mxGeometry relative="1" as="geometry">
            <Array as="points" />
            <mxPoint x="470" y="1790" as="sourcePoint" />
            <mxPoint x="914" y="1790" as="targetPoint" />
          </mxGeometry>
        </mxCell>
        <mxCell id="dnW2ma6gteRVVmG-9UX6-25" value="Redirect to Login page" style="verticalAlign=bottom;edgeStyle=elbowEdgeStyle;elbow=vertical;curved=0;rounded=0;endArrow=block;dashed=1;" edge="1" parent="1">
          <mxGeometry relative="1" as="geometry">
            <Array as="points">
              <mxPoint x="910" y="1830" />
            </Array>
            <mxPoint x="467.63043478260875" y="1827" as="sourcePoint" />
            <mxPoint x="914" y="1830" as="targetPoint" />
          </mxGeometry>
        </mxCell>
      </root>
    </mxGraphModel>
  </diagram>
  <diagram id="t-nWvwqjU5VBb9gti7Qr" name="Page-2">
    <mxGraphModel dx="2868" dy="1502" grid="1" gridSize="10" guides="1" tooltips="1" connect="1" arrows="1" fold="1" page="1" pageScale="1" pageWidth="850" pageHeight="1100" math="0" shadow="0">
      <root>
        <mxCell id="0" />
        <mxCell id="1" parent="0" />
        <mxCell id="JjcVQ5xTZ-eNesYEn0ly-1" value="Agency" style="shape=umlLifeline;perimeter=lifelinePerimeter;whiteSpace=wrap;container=1;dropTarget=0;collapsible=0;recursiveResize=0;outlineConnect=0;portConstraint=eastwest;newEdgeStyle={&quot;edgeStyle&quot;:&quot;elbowEdgeStyle&quot;,&quot;elbow&quot;:&quot;vertical&quot;,&quot;curved&quot;:0,&quot;rounded&quot;:0};size=65;" vertex="1" parent="1">
          <mxGeometry x="20" y="20" width="150" height="2723" as="geometry" />
        </mxCell>
        <mxCell id="JjcVQ5xTZ-eNesYEn0ly-2" value="AgencyDashboard" style="shape=umlLifeline;perimeter=lifelinePerimeter;whiteSpace=wrap;container=1;dropTarget=0;collapsible=0;recursiveResize=0;outlineConnect=0;portConstraint=eastwest;newEdgeStyle={&quot;edgeStyle&quot;:&quot;elbowEdgeStyle&quot;,&quot;elbow&quot;:&quot;vertical&quot;,&quot;curved&quot;:0,&quot;rounded&quot;:0};size=65;" vertex="1" parent="1">
          <mxGeometry x="352" y="20" width="150" height="2723" as="geometry" />
        </mxCell>
        <mxCell id="JjcVQ5xTZ-eNesYEn0ly-3" value="SuperAdmin" style="shape=umlLifeline;perimeter=lifelinePerimeter;whiteSpace=wrap;container=1;dropTarget=0;collapsible=0;recursiveResize=0;outlineConnect=0;portConstraint=eastwest;newEdgeStyle={&quot;edgeStyle&quot;:&quot;elbowEdgeStyle&quot;,&quot;elbow&quot;:&quot;vertical&quot;,&quot;curved&quot;:0,&quot;rounded&quot;:0};size=65;" vertex="1" parent="1">
          <mxGeometry x="552" y="20" width="150" height="2723" as="geometry" />
        </mxCell>
        <mxCell id="JjcVQ5xTZ-eNesYEn0ly-4" value="AdminDashboard" style="shape=umlLifeline;perimeter=lifelinePerimeter;whiteSpace=wrap;container=1;dropTarget=0;collapsible=0;recursiveResize=0;outlineConnect=0;portConstraint=eastwest;newEdgeStyle={&quot;edgeStyle&quot;:&quot;elbowEdgeStyle&quot;,&quot;elbow&quot;:&quot;vertical&quot;,&quot;curved&quot;:0,&quot;rounded&quot;:0};size=65;" vertex="1" parent="1">
          <mxGeometry x="837" y="20" width="150" height="2723" as="geometry" />
        </mxCell>
        <mxCell id="JjcVQ5xTZ-eNesYEn0ly-5" value="Hotel" style="shape=umlLifeline;perimeter=lifelinePerimeter;whiteSpace=wrap;container=1;dropTarget=0;collapsible=0;recursiveResize=0;outlineConnect=0;portConstraint=eastwest;newEdgeStyle={&quot;edgeStyle&quot;:&quot;elbowEdgeStyle&quot;,&quot;elbow&quot;:&quot;vertical&quot;,&quot;curved&quot;:0,&quot;rounded&quot;:0};size=65;" vertex="1" parent="1">
          <mxGeometry x="1037" y="20" width="150" height="2723" as="geometry" />
        </mxCell>
        <mxCell id="JjcVQ5xTZ-eNesYEn0ly-6" value="HotelDashboard" style="shape=umlLifeline;perimeter=lifelinePerimeter;whiteSpace=wrap;container=1;dropTarget=0;collapsible=0;recursiveResize=0;outlineConnect=0;portConstraint=eastwest;newEdgeStyle={&quot;edgeStyle&quot;:&quot;elbowEdgeStyle&quot;,&quot;elbow&quot;:&quot;vertical&quot;,&quot;curved&quot;:0,&quot;rounded&quot;:0};size=65;" vertex="1" parent="1">
          <mxGeometry x="1409" y="20" width="150" height="2723" as="geometry" />
        </mxCell>
        <mxCell id="JjcVQ5xTZ-eNesYEn0ly-7" value="EmailService" style="shape=umlLifeline;perimeter=lifelinePerimeter;whiteSpace=wrap;container=1;dropTarget=0;collapsible=0;recursiveResize=0;outlineConnect=0;portConstraint=eastwest;newEdgeStyle={&quot;edgeStyle&quot;:&quot;elbowEdgeStyle&quot;,&quot;elbow&quot;:&quot;vertical&quot;,&quot;curved&quot;:0,&quot;rounded&quot;:0};size=65;" vertex="1" parent="1">
          <mxGeometry x="1694" y="20" width="150" height="2723" as="geometry" />
        </mxCell>
        <mxCell id="JjcVQ5xTZ-eNesYEn0ly-8" value="PaymentVerification" style="shape=umlLifeline;perimeter=lifelinePerimeter;whiteSpace=wrap;container=1;dropTarget=0;collapsible=0;recursiveResize=0;outlineConnect=0;portConstraint=eastwest;newEdgeStyle={&quot;edgeStyle&quot;:&quot;elbowEdgeStyle&quot;,&quot;elbow&quot;:&quot;vertical&quot;,&quot;curved&quot;:0,&quot;rounded&quot;:0};size=65;" vertex="1" parent="1">
          <mxGeometry x="1894" y="20" width="160" height="2723" as="geometry" />
        </mxCell>
        <mxCell id="JjcVQ5xTZ-eNesYEn0ly-9" value="Database" style="shape=umlLifeline;perimeter=lifelinePerimeter;whiteSpace=wrap;container=1;dropTarget=0;collapsible=0;recursiveResize=0;outlineConnect=0;portConstraint=eastwest;newEdgeStyle={&quot;edgeStyle&quot;:&quot;elbowEdgeStyle&quot;,&quot;elbow&quot;:&quot;vertical&quot;,&quot;curved&quot;:0,&quot;rounded&quot;:0};size=65;" vertex="1" parent="1">
          <mxGeometry x="2104" y="20" width="150" height="2723" as="geometry" />
        </mxCell>
        <mxCell id="JjcVQ5xTZ-eNesYEn0ly-10" value="Login (First Time)" style="verticalAlign=bottom;edgeStyle=elbowEdgeStyle;elbow=vertical;curved=0;rounded=0;endArrow=block;" edge="1" parent="1" source="JjcVQ5xTZ-eNesYEn0ly-1" target="JjcVQ5xTZ-eNesYEn0ly-2">
          <mxGeometry relative="1" as="geometry">
            <Array as="points">
              <mxPoint x="270" y="176" />
            </Array>
          </mxGeometry>
        </mxCell>
        <mxCell id="JjcVQ5xTZ-eNesYEn0ly-11" value="Display Welcome Page" style="curved=1;endArrow=block;rounded=0;" edge="1" parent="1" source="JjcVQ5xTZ-eNesYEn0ly-2" target="JjcVQ5xTZ-eNesYEn0ly-2">
          <mxGeometry relative="1" as="geometry">
            <Array as="points">
              <mxPoint x="478" y="228" />
              <mxPoint x="478" y="258" />
            </Array>
          </mxGeometry>
        </mxCell>
        <mxCell id="JjcVQ5xTZ-eNesYEn0ly-12" value="Submit Agency Details" style="verticalAlign=bottom;edgeStyle=elbowEdgeStyle;elbow=vertical;curved=0;rounded=0;endArrow=block;" edge="1" parent="1" source="JjcVQ5xTZ-eNesYEn0ly-1" target="JjcVQ5xTZ-eNesYEn0ly-2">
          <mxGeometry relative="1" as="geometry">
            <Array as="points">
              <mxPoint x="270" y="310" />
            </Array>
          </mxGeometry>
        </mxCell>
        <mxCell id="JjcVQ5xTZ-eNesYEn0ly-13" value="Save Agency Profile" style="verticalAlign=bottom;edgeStyle=elbowEdgeStyle;elbow=vertical;curved=0;rounded=0;endArrow=block;" edge="1" parent="1" source="JjcVQ5xTZ-eNesYEn0ly-2" target="JjcVQ5xTZ-eNesYEn0ly-9">
          <mxGeometry relative="1" as="geometry">
            <Array as="points">
              <mxPoint x="1312" y="362" />
            </Array>
          </mxGeometry>
        </mxCell>
        <mxCell id="JjcVQ5xTZ-eNesYEn0ly-14" value="Confirm Save" style="verticalAlign=bottom;edgeStyle=elbowEdgeStyle;elbow=vertical;curved=0;rounded=0;dashed=1;dashPattern=2 3;endArrow=block;" edge="1" parent="1" source="JjcVQ5xTZ-eNesYEn0ly-9" target="JjcVQ5xTZ-eNesYEn0ly-2">
          <mxGeometry relative="1" as="geometry">
            <Array as="points">
              <mxPoint x="1315" y="414" />
            </Array>
          </mxGeometry>
        </mxCell>
        <mxCell id="JjcVQ5xTZ-eNesYEn0ly-15" value="Show Agency Dashboard" style="verticalAlign=bottom;edgeStyle=elbowEdgeStyle;elbow=vertical;curved=0;rounded=0;dashed=1;dashPattern=2 3;endArrow=block;" edge="1" parent="1" source="JjcVQ5xTZ-eNesYEn0ly-2" target="JjcVQ5xTZ-eNesYEn0ly-1">
          <mxGeometry relative="1" as="geometry">
            <Array as="points">
              <mxPoint x="273" y="466" />
            </Array>
          </mxGeometry>
        </mxCell>
        <mxCell id="JjcVQ5xTZ-eNesYEn0ly-16" value="Browse Available Hotels" style="verticalAlign=bottom;edgeStyle=elbowEdgeStyle;elbow=vertical;curved=0;rounded=0;endArrow=block;" edge="1" parent="1" source="JjcVQ5xTZ-eNesYEn0ly-1" target="JjcVQ5xTZ-eNesYEn0ly-2">
          <mxGeometry relative="1" as="geometry">
            <Array as="points">
              <mxPoint x="270" y="567" />
            </Array>
          </mxGeometry>
        </mxCell>
        <mxCell id="JjcVQ5xTZ-eNesYEn0ly-17" value="Query Hotels List" style="verticalAlign=bottom;edgeStyle=elbowEdgeStyle;elbow=vertical;curved=0;rounded=0;endArrow=block;" edge="1" parent="1" source="JjcVQ5xTZ-eNesYEn0ly-2" target="JjcVQ5xTZ-eNesYEn0ly-9">
          <mxGeometry relative="1" as="geometry">
            <Array as="points">
              <mxPoint x="1312" y="619" />
            </Array>
          </mxGeometry>
        </mxCell>
        <mxCell id="JjcVQ5xTZ-eNesYEn0ly-18" value="Return Hotels Data" style="verticalAlign=bottom;edgeStyle=elbowEdgeStyle;elbow=vertical;curved=0;rounded=0;dashed=1;dashPattern=2 3;endArrow=block;" edge="1" parent="1" source="JjcVQ5xTZ-eNesYEn0ly-9" target="JjcVQ5xTZ-eNesYEn0ly-2">
          <mxGeometry relative="1" as="geometry">
            <Array as="points">
              <mxPoint x="1315" y="671" />
            </Array>
          </mxGeometry>
        </mxCell>
        <mxCell id="JjcVQ5xTZ-eNesYEn0ly-19" value="Select Hotel" style="verticalAlign=bottom;edgeStyle=elbowEdgeStyle;elbow=vertical;curved=0;rounded=0;endArrow=block;" edge="1" parent="1" source="JjcVQ5xTZ-eNesYEn0ly-1" target="JjcVQ5xTZ-eNesYEn0ly-2">
          <mxGeometry relative="1" as="geometry">
            <Array as="points">
              <mxPoint x="270" y="723" />
            </Array>
          </mxGeometry>
        </mxCell>
        <mxCell id="JjcVQ5xTZ-eNesYEn0ly-20" value="Query Hotel Details &amp; Rate Plans" style="verticalAlign=bottom;edgeStyle=elbowEdgeStyle;elbow=vertical;curved=0;rounded=0;endArrow=block;" edge="1" parent="1" source="JjcVQ5xTZ-eNesYEn0ly-2" target="JjcVQ5xTZ-eNesYEn0ly-9">
          <mxGeometry relative="1" as="geometry">
            <Array as="points">
              <mxPoint x="1312" y="775" />
            </Array>
          </mxGeometry>
        </mxCell>
        <mxCell id="JjcVQ5xTZ-eNesYEn0ly-21" value="Return Rate Plans &amp; Availability" style="verticalAlign=bottom;edgeStyle=elbowEdgeStyle;elbow=vertical;curved=0;rounded=0;dashed=1;dashPattern=2 3;endArrow=block;" edge="1" parent="1" source="JjcVQ5xTZ-eNesYEn0ly-9" target="JjcVQ5xTZ-eNesYEn0ly-2">
          <mxGeometry relative="1" as="geometry">
            <Array as="points">
              <mxPoint x="1315" y="827" />
            </Array>
          </mxGeometry>
        </mxCell>
        <mxCell id="JjcVQ5xTZ-eNesYEn0ly-22" value="Select Rate Plan" style="verticalAlign=bottom;edgeStyle=elbowEdgeStyle;elbow=vertical;curved=0;rounded=0;endArrow=block;" edge="1" parent="1" source="JjcVQ5xTZ-eNesYEn0ly-1" target="JjcVQ5xTZ-eNesYEn0ly-2">
          <mxGeometry relative="1" as="geometry">
            <Array as="points">
              <mxPoint x="270" y="879" />
            </Array>
          </mxGeometry>
        </mxCell>
        <mxCell id="JjcVQ5xTZ-eNesYEn0ly-23" value="Make Bank Transfer to System Owner" style="verticalAlign=bottom;edgeStyle=elbowEdgeStyle;elbow=vertical;curved=0;rounded=0;endArrow=block;" edge="1" parent="1" source="JjcVQ5xTZ-eNesYEn0ly-1" target="JjcVQ5xTZ-eNesYEn0ly-8">
          <mxGeometry relative="1" as="geometry">
            <Array as="points">
              <mxPoint x="1043" y="931" />
            </Array>
          </mxGeometry>
        </mxCell>
        <mxCell id="JjcVQ5xTZ-eNesYEn0ly-24" value="Create Reservation Request" style="verticalAlign=bottom;edgeStyle=elbowEdgeStyle;elbow=vertical;curved=0;rounded=0;endArrow=block;" edge="1" parent="1" source="JjcVQ5xTZ-eNesYEn0ly-1" target="JjcVQ5xTZ-eNesYEn0ly-2">
          <mxGeometry relative="1" as="geometry">
            <Array as="points">
              <mxPoint x="270" y="983" />
            </Array>
          </mxGeometry>
        </mxCell>
        <mxCell id="JjcVQ5xTZ-eNesYEn0ly-25" value="Upload Payment Proof" style="verticalAlign=bottom;edgeStyle=elbowEdgeStyle;elbow=vertical;curved=0;rounded=0;endArrow=block;" edge="1" parent="1" source="JjcVQ5xTZ-eNesYEn0ly-1" target="JjcVQ5xTZ-eNesYEn0ly-2">
          <mxGeometry relative="1" as="geometry">
            <Array as="points">
              <mxPoint x="270" y="1035" />
            </Array>
          </mxGeometry>
        </mxCell>
        <mxCell id="JjcVQ5xTZ-eNesYEn0ly-26" value="Save Reservation &amp; Payment Info" style="verticalAlign=bottom;edgeStyle=elbowEdgeStyle;elbow=vertical;curved=0;rounded=0;endArrow=block;" edge="1" parent="1" source="JjcVQ5xTZ-eNesYEn0ly-2" target="JjcVQ5xTZ-eNesYEn0ly-9">
          <mxGeometry relative="1" as="geometry">
            <Array as="points">
              <mxPoint x="1312" y="1087" />
            </Array>
          </mxGeometry>
        </mxCell>
        <mxCell id="JjcVQ5xTZ-eNesYEn0ly-27" value="Confirm Save" style="verticalAlign=bottom;edgeStyle=elbowEdgeStyle;elbow=vertical;curved=0;rounded=0;dashed=1;dashPattern=2 3;endArrow=block;" edge="1" parent="1" source="JjcVQ5xTZ-eNesYEn0ly-9" target="JjcVQ5xTZ-eNesYEn0ly-2">
          <mxGeometry relative="1" as="geometry">
            <Array as="points">
              <mxPoint x="1315" y="1139" />
            </Array>
          </mxGeometry>
        </mxCell>
        <mxCell id="JjcVQ5xTZ-eNesYEn0ly-28" value="Display Reservation Pending Status" style="verticalAlign=bottom;edgeStyle=elbowEdgeStyle;elbow=vertical;curved=0;rounded=0;dashed=1;dashPattern=2 3;endArrow=block;" edge="1" parent="1" source="JjcVQ5xTZ-eNesYEn0ly-2" target="JjcVQ5xTZ-eNesYEn0ly-1">
          <mxGeometry relative="1" as="geometry">
            <Array as="points">
              <mxPoint x="273" y="1191" />
            </Array>
          </mxGeometry>
        </mxCell>
        <mxCell id="JjcVQ5xTZ-eNesYEn0ly-29" value="Login" style="verticalAlign=bottom;edgeStyle=elbowEdgeStyle;elbow=vertical;curved=0;rounded=0;endArrow=block;" edge="1" parent="1" source="JjcVQ5xTZ-eNesYEn0ly-3" target="JjcVQ5xTZ-eNesYEn0ly-4">
          <mxGeometry relative="1" as="geometry">
            <Array as="points">
              <mxPoint x="778" y="1292" />
            </Array>
          </mxGeometry>
        </mxCell>
        <mxCell id="JjcVQ5xTZ-eNesYEn0ly-30" value="Query Pending Reservations" style="verticalAlign=bottom;edgeStyle=elbowEdgeStyle;elbow=vertical;curved=0;rounded=0;endArrow=block;" edge="1" parent="1" source="JjcVQ5xTZ-eNesYEn0ly-4" target="JjcVQ5xTZ-eNesYEn0ly-9">
          <mxGeometry relative="1" as="geometry">
            <Array as="points">
              <mxPoint x="1554" y="1344" />
            </Array>
          </mxGeometry>
        </mxCell>
        <mxCell id="JjcVQ5xTZ-eNesYEn0ly-31" value="Return Pending Reservations" style="verticalAlign=bottom;edgeStyle=elbowEdgeStyle;elbow=vertical;curved=0;rounded=0;dashed=1;dashPattern=2 3;endArrow=block;" edge="1" parent="1" source="JjcVQ5xTZ-eNesYEn0ly-9" target="JjcVQ5xTZ-eNesYEn0ly-4">
          <mxGeometry relative="1" as="geometry">
            <Array as="points">
              <mxPoint x="1557" y="1396" />
            </Array>
          </mxGeometry>
        </mxCell>
        <mxCell id="JjcVQ5xTZ-eNesYEn0ly-32" value="Verify Payment for Reservation" style="verticalAlign=bottom;edgeStyle=elbowEdgeStyle;elbow=vertical;curved=0;rounded=0;endArrow=block;" edge="1" parent="1" source="JjcVQ5xTZ-eNesYEn0ly-3" target="JjcVQ5xTZ-eNesYEn0ly-4">
          <mxGeometry relative="1" as="geometry">
            <Array as="points">
              <mxPoint x="778" y="1448" />
            </Array>
          </mxGeometry>
        </mxCell>
        <mxCell id="JjcVQ5xTZ-eNesYEn0ly-33" value="Confirm Reservation" style="verticalAlign=bottom;edgeStyle=elbowEdgeStyle;elbow=vertical;curved=0;rounded=0;endArrow=block;" edge="1" parent="1" source="JjcVQ5xTZ-eNesYEn0ly-3" target="JjcVQ5xTZ-eNesYEn0ly-4">
          <mxGeometry relative="1" as="geometry">
            <Array as="points">
              <mxPoint x="778" y="1500" />
            </Array>
          </mxGeometry>
        </mxCell>
        <mxCell id="JjcVQ5xTZ-eNesYEn0ly-34" value="Update Reservation Status" style="verticalAlign=bottom;edgeStyle=elbowEdgeStyle;elbow=vertical;curved=0;rounded=0;endArrow=block;" edge="1" parent="1" source="JjcVQ5xTZ-eNesYEn0ly-4" target="JjcVQ5xTZ-eNesYEn0ly-9">
          <mxGeometry relative="1" as="geometry">
            <Array as="points">
              <mxPoint x="1554" y="1552" />
            </Array>
          </mxGeometry>
        </mxCell>
        <mxCell id="JjcVQ5xTZ-eNesYEn0ly-35" value="Confirm Update" style="verticalAlign=bottom;edgeStyle=elbowEdgeStyle;elbow=vertical;curved=0;rounded=0;dashed=1;dashPattern=2 3;endArrow=block;" edge="1" parent="1" source="JjcVQ5xTZ-eNesYEn0ly-9" target="JjcVQ5xTZ-eNesYEn0ly-4">
          <mxGeometry relative="1" as="geometry">
            <Array as="points">
              <mxPoint x="1557" y="1604" />
            </Array>
          </mxGeometry>
        </mxCell>
        <mxCell id="JjcVQ5xTZ-eNesYEn0ly-36" value="Trigger Notification to Hotel" style="verticalAlign=bottom;edgeStyle=elbowEdgeStyle;elbow=vertical;curved=0;rounded=0;endArrow=block;" edge="1" parent="1" source="JjcVQ5xTZ-eNesYEn0ly-4" target="JjcVQ5xTZ-eNesYEn0ly-7">
          <mxGeometry relative="1" as="geometry">
            <Array as="points">
              <mxPoint x="1349" y="1656" />
            </Array>
          </mxGeometry>
        </mxCell>
        <mxCell id="JjcVQ5xTZ-eNesYEn0ly-37" value="Send Reservation Notification Email" style="verticalAlign=bottom;edgeStyle=elbowEdgeStyle;elbow=vertical;curved=0;rounded=0;dashed=1;dashPattern=2 3;endArrow=block;" edge="1" parent="1" source="JjcVQ5xTZ-eNesYEn0ly-7" target="JjcVQ5xTZ-eNesYEn0ly-5">
          <mxGeometry relative="1" as="geometry">
            <Array as="points">
              <mxPoint x="1452" y="1708" />
            </Array>
          </mxGeometry>
        </mxCell>
        <mxCell id="JjcVQ5xTZ-eNesYEn0ly-38" value="Open Reservation Link in Email" style="verticalAlign=bottom;edgeStyle=elbowEdgeStyle;elbow=vertical;curved=0;rounded=0;endArrow=block;" edge="1" parent="1" source="JjcVQ5xTZ-eNesYEn0ly-5" target="JjcVQ5xTZ-eNesYEn0ly-7">
          <mxGeometry relative="1" as="geometry">
            <Array as="points">
              <mxPoint x="1449" y="1809" />
            </Array>
          </mxGeometry>
        </mxCell>
        <mxCell id="JjcVQ5xTZ-eNesYEn0ly-39" value="Redirect to Reservation Details" style="verticalAlign=bottom;edgeStyle=elbowEdgeStyle;elbow=vertical;curved=0;rounded=0;endArrow=block;" edge="1" parent="1" source="JjcVQ5xTZ-eNesYEn0ly-7" target="JjcVQ5xTZ-eNesYEn0ly-6">
          <mxGeometry relative="1" as="geometry">
            <Array as="points">
              <mxPoint x="1638" y="1861" />
            </Array>
          </mxGeometry>
        </mxCell>
        <mxCell id="JjcVQ5xTZ-eNesYEn0ly-40" value="Login" style="verticalAlign=bottom;edgeStyle=elbowEdgeStyle;elbow=vertical;curved=0;rounded=0;endArrow=block;" edge="1" parent="1" source="JjcVQ5xTZ-eNesYEn0ly-5" target="JjcVQ5xTZ-eNesYEn0ly-6">
          <mxGeometry relative="1" as="geometry">
            <Array as="points">
              <mxPoint x="1307" y="1913" />
            </Array>
          </mxGeometry>
        </mxCell>
        <mxCell id="JjcVQ5xTZ-eNesYEn0ly-41" value="Query Reservation Details" style="verticalAlign=bottom;edgeStyle=elbowEdgeStyle;elbow=vertical;curved=0;rounded=0;endArrow=block;" edge="1" parent="1" source="JjcVQ5xTZ-eNesYEn0ly-6" target="JjcVQ5xTZ-eNesYEn0ly-9">
          <mxGeometry relative="1" as="geometry">
            <Array as="points">
              <mxPoint x="1840" y="1965" />
            </Array>
          </mxGeometry>
        </mxCell>
        <mxCell id="JjcVQ5xTZ-eNesYEn0ly-42" value="Return Reservation Details" style="verticalAlign=bottom;edgeStyle=elbowEdgeStyle;elbow=vertical;curved=0;rounded=0;dashed=1;dashPattern=2 3;endArrow=block;" edge="1" parent="1" source="JjcVQ5xTZ-eNesYEn0ly-9" target="JjcVQ5xTZ-eNesYEn0ly-6">
          <mxGeometry relative="1" as="geometry">
            <Array as="points">
              <mxPoint x="1843" y="2017" />
            </Array>
          </mxGeometry>
        </mxCell>
        <mxCell id="JjcVQ5xTZ-eNesYEn0ly-43" value="Enter Hotel Local System Reservation Code" style="verticalAlign=bottom;edgeStyle=elbowEdgeStyle;elbow=vertical;curved=0;rounded=0;endArrow=block;" edge="1" parent="1" source="JjcVQ5xTZ-eNesYEn0ly-5" target="JjcVQ5xTZ-eNesYEn0ly-6">
          <mxGeometry relative="1" as="geometry">
            <Array as="points">
              <mxPoint x="1307" y="2069" />
            </Array>
          </mxGeometry>
        </mxCell>
        <mxCell id="JjcVQ5xTZ-eNesYEn0ly-44" value="Update with Hotel Confirmation Code" style="verticalAlign=bottom;edgeStyle=elbowEdgeStyle;elbow=vertical;curved=0;rounded=0;endArrow=block;" edge="1" parent="1" source="JjcVQ5xTZ-eNesYEn0ly-6" target="JjcVQ5xTZ-eNesYEn0ly-9">
          <mxGeometry relative="1" as="geometry">
            <Array as="points">
              <mxPoint x="1840" y="2121" />
            </Array>
          </mxGeometry>
        </mxCell>
        <mxCell id="JjcVQ5xTZ-eNesYEn0ly-45" value="Confirm Update" style="verticalAlign=bottom;edgeStyle=elbowEdgeStyle;elbow=vertical;curved=0;rounded=0;dashed=1;dashPattern=2 3;endArrow=block;" edge="1" parent="1" source="JjcVQ5xTZ-eNesYEn0ly-9" target="JjcVQ5xTZ-eNesYEn0ly-6">
          <mxGeometry relative="1" as="geometry">
            <Array as="points">
              <mxPoint x="1843" y="2173" />
            </Array>
          </mxGeometry>
        </mxCell>
        <mxCell id="JjcVQ5xTZ-eNesYEn0ly-46" value="Trigger Notification to Agency" style="verticalAlign=bottom;edgeStyle=elbowEdgeStyle;elbow=vertical;curved=0;rounded=0;endArrow=block;" edge="1" parent="1" source="JjcVQ5xTZ-eNesYEn0ly-6" target="JjcVQ5xTZ-eNesYEn0ly-7">
          <mxGeometry relative="1" as="geometry">
            <Array as="points">
              <mxPoint x="1635" y="2225" />
            </Array>
          </mxGeometry>
        </mxCell>
        <mxCell id="JjcVQ5xTZ-eNesYEn0ly-47" value="Send Confirmation with Hotel Reservation Code" style="verticalAlign=bottom;edgeStyle=elbowEdgeStyle;elbow=vertical;curved=0;rounded=0;dashed=1;dashPattern=2 3;endArrow=block;" edge="1" parent="1" source="JjcVQ5xTZ-eNesYEn0ly-7" target="JjcVQ5xTZ-eNesYEn0ly-1">
          <mxGeometry relative="1" as="geometry">
            <Array as="points">
              <mxPoint x="944" y="2277" />
            </Array>
          </mxGeometry>
        </mxCell>
        <mxCell id="JjcVQ5xTZ-eNesYEn0ly-48" value="View Confirmed Reservation" style="verticalAlign=bottom;edgeStyle=elbowEdgeStyle;elbow=vertical;curved=0;rounded=0;endArrow=block;" edge="1" parent="1" source="JjcVQ5xTZ-eNesYEn0ly-1" target="JjcVQ5xTZ-eNesYEn0ly-2">
          <mxGeometry relative="1" as="geometry">
            <Array as="points">
              <mxPoint x="270" y="2378" />
            </Array>
          </mxGeometry>
        </mxCell>
        <mxCell id="JjcVQ5xTZ-eNesYEn0ly-49" value="Query Complete Reservation Details" style="verticalAlign=bottom;edgeStyle=elbowEdgeStyle;elbow=vertical;curved=0;rounded=0;endArrow=block;" edge="1" parent="1" source="JjcVQ5xTZ-eNesYEn0ly-2" target="JjcVQ5xTZ-eNesYEn0ly-9">
          <mxGeometry relative="1" as="geometry">
            <Array as="points">
              <mxPoint x="1312" y="2430" />
            </Array>
          </mxGeometry>
        </mxCell>
        <mxCell id="JjcVQ5xTZ-eNesYEn0ly-50" value="Return Reservation with Hotel Code" style="verticalAlign=bottom;edgeStyle=elbowEdgeStyle;elbow=vertical;curved=0;rounded=0;dashed=1;dashPattern=2 3;endArrow=block;" edge="1" parent="1" source="JjcVQ5xTZ-eNesYEn0ly-9" target="JjcVQ5xTZ-eNesYEn0ly-2">
          <mxGeometry relative="1" as="geometry">
            <Array as="points">
              <mxPoint x="1315" y="2482" />
            </Array>
          </mxGeometry>
        </mxCell>
        <mxCell id="JjcVQ5xTZ-eNesYEn0ly-51" value="Display Complete Reservation Details" style="verticalAlign=bottom;edgeStyle=elbowEdgeStyle;elbow=vertical;curved=0;rounded=0;dashed=1;dashPattern=2 3;endArrow=block;" edge="1" parent="1" source="JjcVQ5xTZ-eNesYEn0ly-2" target="JjcVQ5xTZ-eNesYEn0ly-1">
          <mxGeometry relative="1" as="geometry">
            <Array as="points">
              <mxPoint x="273" y="2534" />
            </Array>
          </mxGeometry>
        </mxCell>
        <mxCell id="JjcVQ5xTZ-eNesYEn0ly-52" value="Generate Voucher (Optional)" style="verticalAlign=bottom;edgeStyle=elbowEdgeStyle;elbow=vertical;curved=0;rounded=0;endArrow=block;" edge="1" parent="1" source="JjcVQ5xTZ-eNesYEn0ly-1" target="JjcVQ5xTZ-eNesYEn0ly-2">
          <mxGeometry relative="1" as="geometry">
            <Array as="points">
              <mxPoint x="270" y="2586" />
            </Array>
          </mxGeometry>
        </mxCell>
        <mxCell id="JjcVQ5xTZ-eNesYEn0ly-53" value="Provide Voucher for Client" style="verticalAlign=bottom;edgeStyle=elbowEdgeStyle;elbow=vertical;curved=0;rounded=0;endArrow=block;" edge="1" parent="1" source="JjcVQ5xTZ-eNesYEn0ly-2" target="JjcVQ5xTZ-eNesYEn0ly-1">
          <mxGeometry relative="1" as="geometry">
            <Array as="points">
              <mxPoint x="273" y="2638" />
            </Array>
          </mxGeometry>
        </mxCell>
        <mxCell id="JjcVQ5xTZ-eNesYEn0ly-54" value="Agency Registration &amp; Onboarding" style="fillColor=#ffff88;strokeColor=#9E916F;" vertex="1" parent="1">
          <mxGeometry x="70" y="95" width="2134" height="49" as="geometry" />
        </mxCell>
        <mxCell id="JjcVQ5xTZ-eNesYEn0ly-55" value="Hotel Selection &amp; Reservation" style="fillColor=#ffff88;strokeColor=#9E916F;" vertex="1" parent="1">
          <mxGeometry x="70" y="486" width="2134" height="49" as="geometry" />
        </mxCell>
        <mxCell id="JjcVQ5xTZ-eNesYEn0ly-56" value="Payment &amp; Reservation Verification" style="fillColor=#ffff88;strokeColor=#9E916F;" vertex="1" parent="1">
          <mxGeometry x="602" y="1211" width="1602" height="49" as="geometry" />
        </mxCell>
        <mxCell id="JjcVQ5xTZ-eNesYEn0ly-57" value="Hotel Confirmation &amp; Code Generation" style="fillColor=#ffff88;strokeColor=#9E916F;" vertex="1" parent="1">
          <mxGeometry x="70" y="1728" width="1067" height="49" as="geometry" />
        </mxCell>
        <mxCell id="JjcVQ5xTZ-eNesYEn0ly-58" value="Reservation Completion" style="fillColor=#ffff88;strokeColor=#9E916F;" vertex="1" parent="1">
          <mxGeometry x="70" y="2297" width="2134" height="49" as="geometry" />
        </mxCell>
      </root>
    </mxGraphModel>
  </diagram>
  <diagram id="m7D5m_9AMs0vEPgQ6S8W" name="Page-3">
    <mxGraphModel dx="2868" dy="1502" grid="1" gridSize="10" guides="1" tooltips="1" connect="1" arrows="1" fold="1" page="1" pageScale="1" pageWidth="850" pageHeight="1100" math="0" shadow="0">
      <root>
        <mxCell id="0" />
        <mxCell id="1" parent="0" />
        <mxCell id="u7vHUTxII_CLCavHVp7e-1" value="AgencyUser" style="shape=umlLifeline;perimeter=lifelinePerimeter;whiteSpace=wrap;container=1;dropTarget=0;collapsible=0;recursiveResize=0;outlineConnect=0;portConstraint=eastwest;newEdgeStyle={&quot;edgeStyle&quot;:&quot;elbowEdgeStyle&quot;,&quot;elbow&quot;:&quot;vertical&quot;,&quot;curved&quot;:0,&quot;rounded&quot;:0};size=65;" vertex="1" parent="1">
          <mxGeometry x="20" y="20" width="150" height="2020" as="geometry" />
        </mxCell>
        <mxCell id="u7vHUTxII_CLCavHVp7e-2" value="AgencyDashboard" style="shape=umlLifeline;perimeter=lifelinePerimeter;whiteSpace=wrap;container=1;dropTarget=0;collapsible=0;recursiveResize=0;outlineConnect=0;portConstraint=eastwest;newEdgeStyle={&quot;edgeStyle&quot;:&quot;elbowEdgeStyle&quot;,&quot;elbow&quot;:&quot;vertical&quot;,&quot;curved&quot;:0,&quot;rounded&quot;:0};size=65;" vertex="1" parent="1">
          <mxGeometry x="319" y="20" width="150" height="2020" as="geometry" />
        </mxCell>
        <mxCell id="u7vHUTxII_CLCavHVp7e-3" value="System" style="shape=umlLifeline;perimeter=lifelinePerimeter;whiteSpace=wrap;container=1;dropTarget=0;collapsible=0;recursiveResize=0;outlineConnect=0;portConstraint=eastwest;newEdgeStyle={&quot;edgeStyle&quot;:&quot;elbowEdgeStyle&quot;,&quot;elbow&quot;:&quot;vertical&quot;,&quot;curved&quot;:0,&quot;rounded&quot;:0};size=65;" vertex="1" parent="1">
          <mxGeometry x="615" y="20" width="150" height="2020" as="geometry" />
        </mxCell>
        <mxCell id="u7vHUTxII_CLCavHVp7e-4" value="SuperAdminDashboard" style="shape=umlLifeline;perimeter=lifelinePerimeter;whiteSpace=wrap;container=1;dropTarget=0;collapsible=0;recursiveResize=0;outlineConnect=0;portConstraint=eastwest;newEdgeStyle={&quot;edgeStyle&quot;:&quot;elbowEdgeStyle&quot;,&quot;elbow&quot;:&quot;vertical&quot;,&quot;curved&quot;:0,&quot;rounded&quot;:0};size=65;" vertex="1" parent="1">
          <mxGeometry x="836" y="20" width="184" height="2020" as="geometry" />
        </mxCell>
        <mxCell id="u7vHUTxII_CLCavHVp7e-5" value="HotelDashboard" style="shape=umlLifeline;perimeter=lifelinePerimeter;whiteSpace=wrap;container=1;dropTarget=0;collapsible=0;recursiveResize=0;outlineConnect=0;portConstraint=eastwest;newEdgeStyle={&quot;edgeStyle&quot;:&quot;elbowEdgeStyle&quot;,&quot;elbow&quot;:&quot;vertical&quot;,&quot;curved&quot;:0,&quot;rounded&quot;:0};size=65;" vertex="1" parent="1">
          <mxGeometry x="1070" y="20" width="150" height="2020" as="geometry" />
        </mxCell>
        <mxCell id="u7vHUTxII_CLCavHVp7e-6" value="BankSystem" style="shape=umlLifeline;perimeter=lifelinePerimeter;whiteSpace=wrap;container=1;dropTarget=0;collapsible=0;recursiveResize=0;outlineConnect=0;portConstraint=eastwest;newEdgeStyle={&quot;edgeStyle&quot;:&quot;elbowEdgeStyle&quot;,&quot;elbow&quot;:&quot;vertical&quot;,&quot;curved&quot;:0,&quot;rounded&quot;:0};size=65;" vertex="1" parent="1">
          <mxGeometry x="1270" y="20" width="150" height="2020" as="geometry" />
        </mxCell>
        <mxCell id="u7vHUTxII_CLCavHVp7e-7" value="EmailService" style="shape=umlLifeline;perimeter=lifelinePerimeter;whiteSpace=wrap;container=1;dropTarget=0;collapsible=0;recursiveResize=0;outlineConnect=0;portConstraint=eastwest;newEdgeStyle={&quot;edgeStyle&quot;:&quot;elbowEdgeStyle&quot;,&quot;elbow&quot;:&quot;vertical&quot;,&quot;curved&quot;:0,&quot;rounded&quot;:0};size=65;" vertex="1" parent="1">
          <mxGeometry x="1470" y="20" width="150" height="2020" as="geometry" />
        </mxCell>
        <mxCell id="u7vHUTxII_CLCavHVp7e-8" value="loop" style="shape=umlFrame;dashed=1;pointerEvents=0;dropTarget=0;strokeColor=#B3B3B3;height=20;width=40" vertex="1" parent="1">
          <mxGeometry x="84" y="407" width="617" height="254" as="geometry" />
        </mxCell>
        <mxCell id="u7vHUTxII_CLCavHVp7e-9" value="[Hotel Selection]" style="text;strokeColor=none;fillColor=none;align=center;verticalAlign=middle;whiteSpace=wrap;" vertex="1" parent="u7vHUTxII_CLCavHVp7e-8">
          <mxGeometry x="40" width="577" height="20" as="geometry" />
        </mxCell>
        <mxCell id="u7vHUTxII_CLCavHVp7e-10" value="alt" style="shape=umlFrame;dashed=1;pointerEvents=0;dropTarget=0;strokeColor=#B3B3B3;height=20;width=30" vertex="1" parent="1">
          <mxGeometry x="84" y="1749" width="321" height="196" as="geometry" />
        </mxCell>
        <mxCell id="u7vHUTxII_CLCavHVp7e-11" value="[Agency Shares Code]" style="text;strokeColor=none;fillColor=none;align=center;verticalAlign=middle;whiteSpace=wrap;" vertex="1" parent="u7vHUTxII_CLCavHVp7e-10">
          <mxGeometry x="30" width="291" height="20" as="geometry" />
        </mxCell>
        <mxCell id="u7vHUTxII_CLCavHVp7e-12" value="[Agency Keeps Code]" style="shape=line;dashed=1;whiteSpace=wrap;verticalAlign=top;labelPosition=center;verticalLabelPosition=middle;align=center;strokeColor=#B3B3B3;" vertex="1" parent="u7vHUTxII_CLCavHVp7e-10">
          <mxGeometry y="103" width="321" height="4" as="geometry" />
        </mxCell>
        <mxCell id="u7vHUTxII_CLCavHVp7e-13" value="1. Login (first time)" style="verticalAlign=bottom;edgeStyle=elbowEdgeStyle;elbow=vertical;curved=0;rounded=0;endArrow=block;" edge="1" parent="1" source="u7vHUTxII_CLCavHVp7e-1" target="u7vHUTxII_CLCavHVp7e-2">
          <mxGeometry relative="1" as="geometry">
            <Array as="points">
              <mxPoint x="253" y="127" />
            </Array>
          </mxGeometry>
        </mxCell>
        <mxCell id="u7vHUTxII_CLCavHVp7e-14" value="2. Redirect to Profile Completion" style="verticalAlign=bottom;edgeStyle=elbowEdgeStyle;elbow=vertical;curved=0;rounded=0;dashed=1;dashPattern=2 3;endArrow=block;" edge="1" parent="1" source="u7vHUTxII_CLCavHVp7e-2" target="u7vHUTxII_CLCavHVp7e-1">
          <mxGeometry relative="1" as="geometry">
            <Array as="points">
              <mxPoint x="256" y="179" />
            </Array>
          </mxGeometry>
        </mxCell>
        <mxCell id="u7vHUTxII_CLCavHVp7e-15" value="3. Submit Agency Details" style="verticalAlign=bottom;edgeStyle=elbowEdgeStyle;elbow=vertical;curved=0;rounded=0;endArrow=block;" edge="1" parent="1" source="u7vHUTxII_CLCavHVp7e-1" target="u7vHUTxII_CLCavHVp7e-2">
          <mxGeometry relative="1" as="geometry">
            <Array as="points">
              <mxPoint x="253" y="231" />
            </Array>
          </mxGeometry>
        </mxCell>
        <mxCell id="u7vHUTxII_CLCavHVp7e-16" value="4. Save Agency Profile" style="verticalAlign=bottom;edgeStyle=elbowEdgeStyle;elbow=vertical;curved=0;rounded=0;endArrow=block;" edge="1" parent="1" source="u7vHUTxII_CLCavHVp7e-2" target="u7vHUTxII_CLCavHVp7e-3">
          <mxGeometry relative="1" as="geometry">
            <Array as="points">
              <mxPoint x="551" y="283" />
            </Array>
          </mxGeometry>
        </mxCell>
        <mxCell id="u7vHUTxII_CLCavHVp7e-17" value="5. Profile Validation OK" style="verticalAlign=bottom;edgeStyle=elbowEdgeStyle;elbow=vertical;curved=0;rounded=0;dashed=1;dashPattern=2 3;endArrow=block;" edge="1" parent="1" source="u7vHUTxII_CLCavHVp7e-3" target="u7vHUTxII_CLCavHVp7e-2">
          <mxGeometry relative="1" as="geometry">
            <Array as="points">
              <mxPoint x="554" y="335" />
            </Array>
          </mxGeometry>
        </mxCell>
        <mxCell id="u7vHUTxII_CLCavHVp7e-18" value="6. Show Hotel Browser" style="verticalAlign=bottom;edgeStyle=elbowEdgeStyle;elbow=vertical;curved=0;rounded=0;dashed=1;dashPattern=2 3;endArrow=block;" edge="1" parent="1" source="u7vHUTxII_CLCavHVp7e-2" target="u7vHUTxII_CLCavHVp7e-1">
          <mxGeometry relative="1" as="geometry">
            <Array as="points">
              <mxPoint x="256" y="387" />
            </Array>
          </mxGeometry>
        </mxCell>
        <mxCell id="u7vHUTxII_CLCavHVp7e-19" value="7. Browse Hotels" style="verticalAlign=bottom;edgeStyle=elbowEdgeStyle;elbow=vertical;curved=0;rounded=0;endArrow=block;" edge="1" parent="1" source="u7vHUTxII_CLCavHVp7e-1" target="u7vHUTxII_CLCavHVp7e-2">
          <mxGeometry relative="1" as="geometry">
            <Array as="points">
              <mxPoint x="253" y="485" />
            </Array>
          </mxGeometry>
        </mxCell>
        <mxCell id="u7vHUTxII_CLCavHVp7e-20" value="8. Fetch Hotels/Rates" style="verticalAlign=bottom;edgeStyle=elbowEdgeStyle;elbow=vertical;curved=0;rounded=0;endArrow=block;" edge="1" parent="1" source="u7vHUTxII_CLCavHVp7e-2" target="u7vHUTxII_CLCavHVp7e-3">
          <mxGeometry relative="1" as="geometry">
            <Array as="points">
              <mxPoint x="551" y="537" />
            </Array>
          </mxGeometry>
        </mxCell>
        <mxCell id="u7vHUTxII_CLCavHVp7e-21" value="9. Return Hotel List" style="verticalAlign=bottom;edgeStyle=elbowEdgeStyle;elbow=vertical;curved=0;rounded=0;dashed=1;dashPattern=2 3;endArrow=block;" edge="1" parent="1" source="u7vHUTxII_CLCavHVp7e-3" target="u7vHUTxII_CLCavHVp7e-2">
          <mxGeometry relative="1" as="geometry">
            <Array as="points">
              <mxPoint x="554" y="589" />
            </Array>
          </mxGeometry>
        </mxCell>
        <mxCell id="u7vHUTxII_CLCavHVp7e-22" value="10. Display Results" style="verticalAlign=bottom;edgeStyle=elbowEdgeStyle;elbow=vertical;curved=0;rounded=0;dashed=1;dashPattern=2 3;endArrow=block;" edge="1" parent="1" source="u7vHUTxII_CLCavHVp7e-2" target="u7vHUTxII_CLCavHVp7e-1">
          <mxGeometry relative="1" as="geometry">
            <Array as="points">
              <mxPoint x="256" y="641" />
            </Array>
          </mxGeometry>
        </mxCell>
        <mxCell id="u7vHUTxII_CLCavHVp7e-23" value="11. Select Hotel &amp; Rate Plan" style="verticalAlign=bottom;edgeStyle=elbowEdgeStyle;elbow=vertical;curved=0;rounded=0;endArrow=block;" edge="1" parent="1" source="u7vHUTxII_CLCavHVp7e-1" target="u7vHUTxII_CLCavHVp7e-2">
          <mxGeometry relative="1" as="geometry">
            <Array as="points">
              <mxPoint x="253" y="703" />
            </Array>
          </mxGeometry>
        </mxCell>
        <mxCell id="u7vHUTxII_CLCavHVp7e-24" value="12. Generate Payment Summary" style="verticalAlign=bottom;edgeStyle=elbowEdgeStyle;elbow=vertical;curved=0;rounded=0;endArrow=block;" edge="1" parent="1" source="u7vHUTxII_CLCavHVp7e-2" target="u7vHUTxII_CLCavHVp7e-3">
          <mxGeometry relative="1" as="geometry">
            <Array as="points">
              <mxPoint x="551" y="755" />
            </Array>
          </mxGeometry>
        </mxCell>
        <mxCell id="u7vHUTxII_CLCavHVp7e-25" value="13. Return Payment Details" style="verticalAlign=bottom;edgeStyle=elbowEdgeStyle;elbow=vertical;curved=0;rounded=0;dashed=1;dashPattern=2 3;endArrow=block;" edge="1" parent="1" source="u7vHUTxII_CLCavHVp7e-3" target="u7vHUTxII_CLCavHVp7e-2">
          <mxGeometry relative="1" as="geometry">
            <Array as="points">
              <mxPoint x="554" y="807" />
            </Array>
          </mxGeometry>
        </mxCell>
        <mxCell id="u7vHUTxII_CLCavHVp7e-26" value="14. Show Payment Instructions" style="verticalAlign=bottom;edgeStyle=elbowEdgeStyle;elbow=vertical;curved=0;rounded=0;dashed=1;dashPattern=2 3;endArrow=block;" edge="1" parent="1" source="u7vHUTxII_CLCavHVp7e-2" target="u7vHUTxII_CLCavHVp7e-1">
          <mxGeometry relative="1" as="geometry">
            <Array as="points">
              <mxPoint x="256" y="859" />
            </Array>
          </mxGeometry>
        </mxCell>
        <mxCell id="u7vHUTxII_CLCavHVp7e-27" value="15. Initiate Bank Transfer" style="verticalAlign=bottom;edgeStyle=elbowEdgeStyle;elbow=vertical;curved=0;rounded=0;endArrow=block;" edge="1" parent="1" source="u7vHUTxII_CLCavHVp7e-1" target="u7vHUTxII_CLCavHVp7e-6">
          <mxGeometry relative="1" as="geometry">
            <Array as="points">
              <mxPoint x="729" y="911" />
            </Array>
          </mxGeometry>
        </mxCell>
        <mxCell id="u7vHUTxII_CLCavHVp7e-28" value="16. Transfer Confirmation" style="verticalAlign=bottom;edgeStyle=elbowEdgeStyle;elbow=vertical;curved=0;rounded=0;dashed=1;dashPattern=2 3;endArrow=block;" edge="1" parent="1" source="u7vHUTxII_CLCavHVp7e-6" target="u7vHUTxII_CLCavHVp7e-1">
          <mxGeometry relative="1" as="geometry">
            <Array as="points">
              <mxPoint x="732" y="963" />
            </Array>
          </mxGeometry>
        </mxCell>
        <mxCell id="u7vHUTxII_CLCavHVp7e-29" value="17. Upload Payment Proof" style="verticalAlign=bottom;edgeStyle=elbowEdgeStyle;elbow=vertical;curved=0;rounded=0;endArrow=block;" edge="1" parent="1" source="u7vHUTxII_CLCavHVp7e-1" target="u7vHUTxII_CLCavHVp7e-2">
          <mxGeometry relative="1" as="geometry">
            <Array as="points">
              <mxPoint x="253" y="1015" />
            </Array>
          </mxGeometry>
        </mxCell>
        <mxCell id="u7vHUTxII_CLCavHVp7e-30" value="18. Create Pending Reservation" style="verticalAlign=bottom;edgeStyle=elbowEdgeStyle;elbow=vertical;curved=0;rounded=0;endArrow=block;" edge="1" parent="1" source="u7vHUTxII_CLCavHVp7e-2" target="u7vHUTxII_CLCavHVp7e-3">
          <mxGeometry relative="1" as="geometry">
            <Array as="points">
              <mxPoint x="551" y="1067" />
            </Array>
          </mxGeometry>
        </mxCell>
        <mxCell id="u7vHUTxII_CLCavHVp7e-31" value="19. Notify Super Admin (New Reservation)" style="verticalAlign=bottom;edgeStyle=elbowEdgeStyle;elbow=vertical;curved=0;rounded=0;endArrow=block;" edge="1" parent="1" source="u7vHUTxII_CLCavHVp7e-3" target="u7vHUTxII_CLCavHVp7e-7">
          <mxGeometry relative="1" as="geometry">
            <Array as="points">
              <mxPoint x="1126" y="1119" />
            </Array>
          </mxGeometry>
        </mxCell>
        <mxCell id="u7vHUTxII_CLCavHVp7e-32" value="20. Send Notification" style="verticalAlign=bottom;edgeStyle=elbowEdgeStyle;elbow=vertical;curved=0;rounded=0;dashed=1;dashPattern=2 3;endArrow=block;" edge="1" parent="1" source="u7vHUTxII_CLCavHVp7e-7" target="u7vHUTxII_CLCavHVp7e-4">
          <mxGeometry relative="1" as="geometry">
            <Array as="points">
              <mxPoint x="1248" y="1171" />
            </Array>
          </mxGeometry>
        </mxCell>
        <mxCell id="u7vHUTxII_CLCavHVp7e-33" value="21. Review Payment Proof" style="curved=1;endArrow=block;rounded=0;" edge="1" parent="1" source="u7vHUTxII_CLCavHVp7e-4" target="u7vHUTxII_CLCavHVp7e-4">
          <mxGeometry relative="1" as="geometry">
            <Array as="points">
              <mxPoint x="979" y="1223" />
              <mxPoint x="979" y="1253" />
            </Array>
          </mxGeometry>
        </mxCell>
        <mxCell id="u7vHUTxII_CLCavHVp7e-34" value="22. Confirm Reservation" style="verticalAlign=bottom;edgeStyle=elbowEdgeStyle;elbow=vertical;curved=0;rounded=0;endArrow=block;" edge="1" parent="1" source="u7vHUTxII_CLCavHVp7e-4" target="u7vHUTxII_CLCavHVp7e-3">
          <mxGeometry relative="1" as="geometry">
            <Array as="points">
              <mxPoint x="821" y="1305" />
            </Array>
          </mxGeometry>
        </mxCell>
        <mxCell id="u7vHUTxII_CLCavHVp7e-35" value="23. Notify Hotel" style="verticalAlign=bottom;edgeStyle=elbowEdgeStyle;elbow=vertical;curved=0;rounded=0;endArrow=block;" edge="1" parent="1" source="u7vHUTxII_CLCavHVp7e-3" target="u7vHUTxII_CLCavHVp7e-7">
          <mxGeometry relative="1" as="geometry">
            <Array as="points">
              <mxPoint x="1126" y="1357" />
            </Array>
          </mxGeometry>
        </mxCell>
        <mxCell id="u7vHUTxII_CLCavHVp7e-36" value="24. Reservation Notification" style="verticalAlign=bottom;edgeStyle=elbowEdgeStyle;elbow=vertical;curved=0;rounded=0;dashed=1;dashPattern=2 3;endArrow=block;" edge="1" parent="1" source="u7vHUTxII_CLCavHVp7e-7" target="u7vHUTxII_CLCavHVp7e-5">
          <mxGeometry relative="1" as="geometry">
            <Array as="points">
              <mxPoint x="1357" y="1409" />
            </Array>
          </mxGeometry>
        </mxCell>
        <mxCell id="u7vHUTxII_CLCavHVp7e-37" value="25. Open Reservation Link" style="curved=1;endArrow=block;rounded=0;" edge="1" parent="1" source="u7vHUTxII_CLCavHVp7e-5" target="u7vHUTxII_CLCavHVp7e-5">
          <mxGeometry relative="1" as="geometry">
            <Array as="points">
              <mxPoint x="1196" y="1461" />
              <mxPoint x="1196" y="1491" />
            </Array>
          </mxGeometry>
        </mxCell>
        <mxCell id="u7vHUTxII_CLCavHVp7e-38" value="26. Enter Local System Code" style="verticalAlign=bottom;edgeStyle=elbowEdgeStyle;elbow=vertical;curved=0;rounded=0;endArrow=block;" edge="1" parent="1" source="u7vHUTxII_CLCavHVp7e-5" target="u7vHUTxII_CLCavHVp7e-3">
          <mxGeometry relative="1" as="geometry">
            <Array as="points">
              <mxPoint x="929" y="1543" />
            </Array>
          </mxGeometry>
        </mxCell>
        <mxCell id="u7vHUTxII_CLCavHVp7e-39" value="27. Validate Code" style="curved=1;endArrow=block;rounded=0;" edge="1" parent="1" source="u7vHUTxII_CLCavHVp7e-3" target="u7vHUTxII_CLCavHVp7e-3">
          <mxGeometry relative="1" as="geometry">
            <Array as="points">
              <mxPoint x="741" y="1595" />
              <mxPoint x="741" y="1625" />
            </Array>
          </mxGeometry>
        </mxCell>
        <mxCell id="u7vHUTxII_CLCavHVp7e-40" value="28. Send Confirmation to Agency" style="verticalAlign=bottom;edgeStyle=elbowEdgeStyle;elbow=vertical;curved=0;rounded=0;endArrow=block;" edge="1" parent="1" source="u7vHUTxII_CLCavHVp7e-3" target="u7vHUTxII_CLCavHVp7e-7">
          <mxGeometry relative="1" as="geometry">
            <Array as="points">
              <mxPoint x="1126" y="1677" />
            </Array>
          </mxGeometry>
        </mxCell>
        <mxCell id="u7vHUTxII_CLCavHVp7e-41" value="29. Delivery Notification" style="verticalAlign=bottom;edgeStyle=elbowEdgeStyle;elbow=vertical;curved=0;rounded=0;dashed=1;dashPattern=2 3;endArrow=block;" edge="1" parent="1" source="u7vHUTxII_CLCavHVp7e-7" target="u7vHUTxII_CLCavHVp7e-2">
          <mxGeometry relative="1" as="geometry">
            <Array as="points">
              <mxPoint x="981" y="1729" />
            </Array>
          </mxGeometry>
        </mxCell>
        <mxCell id="u7vHUTxII_CLCavHVp7e-42" value="30a. Provide Code to Client" style="verticalAlign=bottom;edgeStyle=elbowEdgeStyle;elbow=vertical;curved=0;rounded=0;endArrow=block;" edge="1" parent="1" source="u7vHUTxII_CLCavHVp7e-2" target="u7vHUTxII_CLCavHVp7e-1">
          <mxGeometry relative="1" as="geometry">
            <Array as="points">
              <mxPoint x="256" y="1827" />
            </Array>
          </mxGeometry>
        </mxCell>
        <mxCell id="u7vHUTxII_CLCavHVp7e-43" value="30b. Confirm Code Retention" style="verticalAlign=bottom;edgeStyle=elbowEdgeStyle;elbow=vertical;curved=0;rounded=0;endArrow=block;" edge="1" parent="1" source="u7vHUTxII_CLCavHVp7e-2" target="u7vHUTxII_CLCavHVp7e-1">
          <mxGeometry relative="1" as="geometry">
            <Array as="points">
              <mxPoint x="256" y="1925" />
            </Array>
          </mxGeometry>
        </mxCell>
      </root>
    </mxGraphModel>
  </diagram>
  <diagram id="0RgZkw6tgAPDZXJuDFPk" name="Page-4">
    <mxGraphModel dx="1793" dy="939" grid="1" gridSize="10" guides="1" tooltips="1" connect="1" arrows="1" fold="1" page="1" pageScale="1" pageWidth="850" pageHeight="1100" math="0" shadow="0">
      <root>
        <mxCell id="0" />
        <mxCell id="1" parent="0" />
        <mxCell id="v1BBYUreaRFidWBnA6o4-1" value="Agency" style="shape=umlLifeline;perimeter=lifelinePerimeter;whiteSpace=wrap;container=1;dropTarget=0;collapsible=0;recursiveResize=0;outlineConnect=0;portConstraint=eastwest;newEdgeStyle={&quot;edgeStyle&quot;:&quot;elbowEdgeStyle&quot;,&quot;elbow&quot;:&quot;vertical&quot;,&quot;curved&quot;:0,&quot;rounded&quot;:0};size=65;" vertex="1" parent="1">
          <mxGeometry x="20" y="20" width="150" height="2241" as="geometry" />
        </mxCell>
        <mxCell id="v1BBYUreaRFidWBnA6o4-2" value="Agency Dashboard" style="shape=umlLifeline;perimeter=lifelinePerimeter;whiteSpace=wrap;container=1;dropTarget=0;collapsible=0;recursiveResize=0;outlineConnect=0;portConstraint=eastwest;newEdgeStyle={&quot;edgeStyle&quot;:&quot;elbowEdgeStyle&quot;,&quot;elbow&quot;:&quot;vertical&quot;,&quot;curved&quot;:0,&quot;rounded&quot;:0};size=65;" vertex="1" parent="1">
          <mxGeometry x="364" y="20" width="154" height="2241" as="geometry" />
        </mxCell>
        <mxCell id="v1BBYUreaRFidWBnA6o4-3" value="Auth Service" style="shape=umlLifeline;perimeter=lifelinePerimeter;whiteSpace=wrap;container=1;dropTarget=0;collapsible=0;recursiveResize=0;outlineConnect=0;portConstraint=eastwest;newEdgeStyle={&quot;edgeStyle&quot;:&quot;elbowEdgeStyle&quot;,&quot;elbow&quot;:&quot;vertical&quot;,&quot;curved&quot;:0,&quot;rounded&quot;:0};size=65;" vertex="1" parent="1">
          <mxGeometry x="606" y="20" width="150" height="2241" as="geometry" />
        </mxCell>
        <mxCell id="v1BBYUreaRFidWBnA6o4-4" value="Database" style="shape=umlLifeline;perimeter=lifelinePerimeter;whiteSpace=wrap;container=1;dropTarget=0;collapsible=0;recursiveResize=0;outlineConnect=0;portConstraint=eastwest;newEdgeStyle={&quot;edgeStyle&quot;:&quot;elbowEdgeStyle&quot;,&quot;elbow&quot;:&quot;vertical&quot;,&quot;curved&quot;:0,&quot;rounded&quot;:0};size=65;" vertex="1" parent="1">
          <mxGeometry x="825" y="20" width="150" height="2241" as="geometry" />
        </mxCell>
        <mxCell id="v1BBYUreaRFidWBnA6o4-5" value="Payment System" style="shape=umlLifeline;perimeter=lifelinePerimeter;whiteSpace=wrap;container=1;dropTarget=0;collapsible=0;recursiveResize=0;outlineConnect=0;portConstraint=eastwest;newEdgeStyle={&quot;edgeStyle&quot;:&quot;elbowEdgeStyle&quot;,&quot;elbow&quot;:&quot;vertical&quot;,&quot;curved&quot;:0,&quot;rounded&quot;:0};size=65;" vertex="1" parent="1">
          <mxGeometry x="1025" y="20" width="150" height="2241" as="geometry" />
        </mxCell>
        <mxCell id="v1BBYUreaRFidWBnA6o4-6" value="Super Admin Dashboard" style="shape=umlLifeline;perimeter=lifelinePerimeter;whiteSpace=wrap;container=1;dropTarget=0;collapsible=0;recursiveResize=0;outlineConnect=0;portConstraint=eastwest;newEdgeStyle={&quot;edgeStyle&quot;:&quot;elbowEdgeStyle&quot;,&quot;elbow&quot;:&quot;vertical&quot;,&quot;curved&quot;:0,&quot;rounded&quot;:0};size=65;" vertex="1" parent="1">
          <mxGeometry x="1225" y="20" width="193" height="2241" as="geometry" />
        </mxCell>
        <mxCell id="v1BBYUreaRFidWBnA6o4-7" value="Email Service" style="shape=umlLifeline;perimeter=lifelinePerimeter;whiteSpace=wrap;container=1;dropTarget=0;collapsible=0;recursiveResize=0;outlineConnect=0;portConstraint=eastwest;newEdgeStyle={&quot;edgeStyle&quot;:&quot;elbowEdgeStyle&quot;,&quot;elbow&quot;:&quot;vertical&quot;,&quot;curved&quot;:0,&quot;rounded&quot;:0};size=65;" vertex="1" parent="1">
          <mxGeometry x="1584" y="20" width="150" height="2241" as="geometry" />
        </mxCell>
        <mxCell id="v1BBYUreaRFidWBnA6o4-8" value="Hotel Dashboard" style="shape=umlLifeline;perimeter=lifelinePerimeter;whiteSpace=wrap;container=1;dropTarget=0;collapsible=0;recursiveResize=0;outlineConnect=0;portConstraint=eastwest;newEdgeStyle={&quot;edgeStyle&quot;:&quot;elbowEdgeStyle&quot;,&quot;elbow&quot;:&quot;vertical&quot;,&quot;curved&quot;:0,&quot;rounded&quot;:0};size=65;" vertex="1" parent="1">
          <mxGeometry x="1784" y="20" width="150" height="2241" as="geometry" />
        </mxCell>
        <mxCell id="v1BBYUreaRFidWBnA6o4-9" value="Hotel Local System" style="shape=umlLifeline;perimeter=lifelinePerimeter;whiteSpace=wrap;container=1;dropTarget=0;collapsible=0;recursiveResize=0;outlineConnect=0;portConstraint=eastwest;newEdgeStyle={&quot;edgeStyle&quot;:&quot;elbowEdgeStyle&quot;,&quot;elbow&quot;:&quot;vertical&quot;,&quot;curved&quot;:0,&quot;rounded&quot;:0};size=65;" vertex="1" parent="1">
          <mxGeometry x="1998" y="20" width="154" height="2241" as="geometry" />
        </mxCell>
        <mxCell id="v1BBYUreaRFidWBnA6o4-10" value="alt" style="shape=umlFrame;dashed=1;pointerEvents=0;dropTarget=0;strokeColor=#B3B3B3;height=20;width=30" vertex="1" parent="1">
          <mxGeometry x="84" y="1967" width="1249" height="150" as="geometry" />
        </mxCell>
        <mxCell id="v1BBYUreaRFidWBnA6o4-11" value="[Invalid Payment Proof]" style="text;strokeColor=none;fillColor=none;align=center;verticalAlign=middle;whiteSpace=wrap;" vertex="1" parent="v1BBYUreaRFidWBnA6o4-10">
          <mxGeometry x="30" width="1219" height="20" as="geometry" />
        </mxCell>
        <mxCell id="v1BBYUreaRFidWBnA6o4-12" value="Login (first time)" style="verticalAlign=bottom;edgeStyle=elbowEdgeStyle;elbow=vertical;curved=0;rounded=0;endArrow=block;" edge="1" parent="1" source="v1BBYUreaRFidWBnA6o4-1" target="v1BBYUreaRFidWBnA6o4-2">
          <mxGeometry relative="1" as="geometry">
            <Array as="points">
              <mxPoint x="277" y="127" />
            </Array>
          </mxGeometry>
        </mxCell>
        <mxCell id="v1BBYUreaRFidWBnA6o4-13" value="Authenticate credentials" style="verticalAlign=bottom;edgeStyle=elbowEdgeStyle;elbow=vertical;curved=0;rounded=0;endArrow=block;" edge="1" parent="1" source="v1BBYUreaRFidWBnA6o4-2" target="v1BBYUreaRFidWBnA6o4-3">
          <mxGeometry relative="1" as="geometry">
            <Array as="points">
              <mxPoint x="570" y="179" />
            </Array>
          </mxGeometry>
        </mxCell>
        <mxCell id="v1BBYUreaRFidWBnA6o4-14" value="Verify user" style="verticalAlign=bottom;edgeStyle=elbowEdgeStyle;elbow=vertical;curved=0;rounded=0;dashed=1;dashPattern=2 3;endArrow=block;" edge="1" parent="1" source="v1BBYUreaRFidWBnA6o4-3" target="v1BBYUreaRFidWBnA6o4-4">
          <mxGeometry relative="1" as="geometry">
            <Array as="points">
              <mxPoint x="799" y="231" />
            </Array>
          </mxGeometry>
        </mxCell>
        <mxCell id="v1BBYUreaRFidWBnA6o4-15" value="User exists, first login" style="verticalAlign=bottom;edgeStyle=elbowEdgeStyle;elbow=vertical;curved=0;rounded=0;dashed=1;dashPattern=2 3;endArrow=block;" edge="1" parent="1" source="v1BBYUreaRFidWBnA6o4-4" target="v1BBYUreaRFidWBnA6o4-3">
          <mxGeometry relative="1" as="geometry">
            <Array as="points">
              <mxPoint x="802" y="283" />
            </Array>
          </mxGeometry>
        </mxCell>
        <mxCell id="v1BBYUreaRFidWBnA6o4-16" value="Success, first-time flag" style="verticalAlign=bottom;edgeStyle=elbowEdgeStyle;elbow=vertical;curved=0;rounded=0;dashed=1;dashPattern=2 3;endArrow=block;" edge="1" parent="1" source="v1BBYUreaRFidWBnA6o4-3" target="v1BBYUreaRFidWBnA6o4-2">
          <mxGeometry relative="1" as="geometry">
            <Array as="points">
              <mxPoint x="573" y="335" />
            </Array>
          </mxGeometry>
        </mxCell>
        <mxCell id="v1BBYUreaRFidWBnA6o4-17" value="Show Welcome Page" style="verticalAlign=bottom;edgeStyle=elbowEdgeStyle;elbow=vertical;curved=0;rounded=0;dashed=1;dashPattern=2 3;endArrow=block;" edge="1" parent="1" source="v1BBYUreaRFidWBnA6o4-2" target="v1BBYUreaRFidWBnA6o4-1">
          <mxGeometry relative="1" as="geometry">
            <Array as="points">
              <mxPoint x="280" y="387" />
            </Array>
          </mxGeometry>
        </mxCell>
        <mxCell id="v1BBYUreaRFidWBnA6o4-18" value="Fill agency details" style="verticalAlign=bottom;edgeStyle=elbowEdgeStyle;elbow=vertical;curved=0;rounded=0;endArrow=block;" edge="1" parent="1" source="v1BBYUreaRFidWBnA6o4-1" target="v1BBYUreaRFidWBnA6o4-2">
          <mxGeometry relative="1" as="geometry">
            <Array as="points">
              <mxPoint x="277" y="439" />
            </Array>
          </mxGeometry>
        </mxCell>
        <mxCell id="v1BBYUreaRFidWBnA6o4-19" value="Save details" style="verticalAlign=bottom;edgeStyle=elbowEdgeStyle;elbow=vertical;curved=0;rounded=0;endArrow=block;" edge="1" parent="1" source="v1BBYUreaRFidWBnA6o4-2" target="v1BBYUreaRFidWBnA6o4-4">
          <mxGeometry relative="1" as="geometry">
            <Array as="points">
              <mxPoint x="679" y="491" />
            </Array>
          </mxGeometry>
        </mxCell>
        <mxCell id="v1BBYUreaRFidWBnA6o4-20" value="Details saved" style="verticalAlign=bottom;edgeStyle=elbowEdgeStyle;elbow=vertical;curved=0;rounded=0;dashed=1;dashPattern=2 3;endArrow=block;" edge="1" parent="1" source="v1BBYUreaRFidWBnA6o4-4" target="v1BBYUreaRFidWBnA6o4-2">
          <mxGeometry relative="1" as="geometry">
            <Array as="points">
              <mxPoint x="682" y="543" />
            </Array>
          </mxGeometry>
        </mxCell>
        <mxCell id="v1BBYUreaRFidWBnA6o4-21" value="Show hotel browsing page" style="verticalAlign=bottom;edgeStyle=elbowEdgeStyle;elbow=vertical;curved=0;rounded=0;dashed=1;dashPattern=2 3;endArrow=block;" edge="1" parent="1" source="v1BBYUreaRFidWBnA6o4-2" target="v1BBYUreaRFidWBnA6o4-1">
          <mxGeometry relative="1" as="geometry">
            <Array as="points">
              <mxPoint x="280" y="595" />
            </Array>
          </mxGeometry>
        </mxCell>
        <mxCell id="v1BBYUreaRFidWBnA6o4-22" value="Browse hotels" style="verticalAlign=bottom;edgeStyle=elbowEdgeStyle;elbow=vertical;curved=0;rounded=0;endArrow=block;" edge="1" parent="1" source="v1BBYUreaRFidWBnA6o4-1" target="v1BBYUreaRFidWBnA6o4-2">
          <mxGeometry relative="1" as="geometry">
            <Array as="points">
              <mxPoint x="277" y="647" />
            </Array>
          </mxGeometry>
        </mxCell>
        <mxCell id="v1BBYUreaRFidWBnA6o4-23" value="Fetch hotel list" style="verticalAlign=bottom;edgeStyle=elbowEdgeStyle;elbow=vertical;curved=0;rounded=0;endArrow=block;" edge="1" parent="1" source="v1BBYUreaRFidWBnA6o4-2" target="v1BBYUreaRFidWBnA6o4-4">
          <mxGeometry relative="1" as="geometry">
            <Array as="points">
              <mxPoint x="679" y="699" />
            </Array>
          </mxGeometry>
        </mxCell>
        <mxCell id="v1BBYUreaRFidWBnA6o4-24" value="Return hotel list" style="verticalAlign=bottom;edgeStyle=elbowEdgeStyle;elbow=vertical;curved=0;rounded=0;dashed=1;dashPattern=2 3;endArrow=block;" edge="1" parent="1" source="v1BBYUreaRFidWBnA6o4-4" target="v1BBYUreaRFidWBnA6o4-2">
          <mxGeometry relative="1" as="geometry">
            <Array as="points">
              <mxPoint x="682" y="751" />
            </Array>
          </mxGeometry>
        </mxCell>
        <mxCell id="v1BBYUreaRFidWBnA6o4-25" value="Display hotels" style="verticalAlign=bottom;edgeStyle=elbowEdgeStyle;elbow=vertical;curved=0;rounded=0;dashed=1;dashPattern=2 3;endArrow=block;" edge="1" parent="1" source="v1BBYUreaRFidWBnA6o4-2" target="v1BBYUreaRFidWBnA6o4-1">
          <mxGeometry relative="1" as="geometry">
            <Array as="points">
              <mxPoint x="280" y="803" />
            </Array>
          </mxGeometry>
        </mxCell>
        <mxCell id="v1BBYUreaRFidWBnA6o4-26" value="Select hotel &amp; rate plan" style="verticalAlign=bottom;edgeStyle=elbowEdgeStyle;elbow=vertical;curved=0;rounded=0;endArrow=block;" edge="1" parent="1" source="v1BBYUreaRFidWBnA6o4-1" target="v1BBYUreaRFidWBnA6o4-2">
          <mxGeometry relative="1" as="geometry">
            <Array as="points">
              <mxPoint x="277" y="855" />
            </Array>
          </mxGeometry>
        </mxCell>
        <mxCell id="v1BBYUreaRFidWBnA6o4-27" value="Send bank transfer" style="verticalAlign=bottom;edgeStyle=elbowEdgeStyle;elbow=vertical;curved=0;rounded=0;endArrow=block;" edge="1" parent="1" source="v1BBYUreaRFidWBnA6o4-1" target="v1BBYUreaRFidWBnA6o4-5">
          <mxGeometry relative="1" as="geometry">
            <Array as="points">
              <mxPoint x="606" y="907" />
            </Array>
          </mxGeometry>
        </mxCell>
        <mxCell id="v1BBYUreaRFidWBnA6o4-28" value="Payment confirmation" style="verticalAlign=bottom;edgeStyle=elbowEdgeStyle;elbow=vertical;curved=0;rounded=0;dashed=1;dashPattern=2 3;endArrow=block;" edge="1" parent="1" source="v1BBYUreaRFidWBnA6o4-5" target="v1BBYUreaRFidWBnA6o4-1">
          <mxGeometry relative="1" as="geometry">
            <Array as="points">
              <mxPoint x="609" y="959" />
            </Array>
          </mxGeometry>
        </mxCell>
        <mxCell id="v1BBYUreaRFidWBnA6o4-29" value="Submit reservation with payment proof" style="verticalAlign=bottom;edgeStyle=elbowEdgeStyle;elbow=vertical;curved=0;rounded=0;endArrow=block;" edge="1" parent="1" source="v1BBYUreaRFidWBnA6o4-1" target="v1BBYUreaRFidWBnA6o4-2">
          <mxGeometry relative="1" as="geometry">
            <Array as="points">
              <mxPoint x="277" y="1011" />
            </Array>
          </mxGeometry>
        </mxCell>
        <mxCell id="v1BBYUreaRFidWBnA6o4-30" value="Store reservation &amp; payment proof" style="verticalAlign=bottom;edgeStyle=elbowEdgeStyle;elbow=vertical;curved=0;rounded=0;endArrow=block;" edge="1" parent="1" source="v1BBYUreaRFidWBnA6o4-2" target="v1BBYUreaRFidWBnA6o4-4">
          <mxGeometry relative="1" as="geometry">
            <Array as="points">
              <mxPoint x="679" y="1063" />
            </Array>
          </mxGeometry>
        </mxCell>
        <mxCell id="v1BBYUreaRFidWBnA6o4-31" value="Reservation stored" style="verticalAlign=bottom;edgeStyle=elbowEdgeStyle;elbow=vertical;curved=0;rounded=0;dashed=1;dashPattern=2 3;endArrow=block;" edge="1" parent="1" source="v1BBYUreaRFidWBnA6o4-4" target="v1BBYUreaRFidWBnA6o4-2">
          <mxGeometry relative="1" as="geometry">
            <Array as="points">
              <mxPoint x="682" y="1115" />
            </Array>
          </mxGeometry>
        </mxCell>
        <mxCell id="v1BBYUreaRFidWBnA6o4-32" value="Notify new reservation" style="verticalAlign=bottom;edgeStyle=elbowEdgeStyle;elbow=vertical;curved=0;rounded=0;endArrow=block;" edge="1" parent="1" source="v1BBYUreaRFidWBnA6o4-2" target="v1BBYUreaRFidWBnA6o4-6">
          <mxGeometry relative="1" as="geometry">
            <Array as="points">
              <mxPoint x="890" y="1167" />
            </Array>
          </mxGeometry>
        </mxCell>
        <mxCell id="v1BBYUreaRFidWBnA6o4-33" value="(Pending confirmation)" style="verticalAlign=bottom;edgeStyle=elbowEdgeStyle;elbow=vertical;curved=0;rounded=0;dashed=1;dashPattern=2 3;endArrow=block;" edge="1" parent="1" source="v1BBYUreaRFidWBnA6o4-6" target="v1BBYUreaRFidWBnA6o4-1">
          <mxGeometry relative="1" as="geometry">
            <Array as="points">
              <mxPoint x="720" y="1219" />
            </Array>
          </mxGeometry>
        </mxCell>
        <mxCell id="v1BBYUreaRFidWBnA6o4-34" value="Verify payment proof" style="verticalAlign=bottom;edgeStyle=elbowEdgeStyle;elbow=vertical;curved=0;rounded=0;endArrow=block;" edge="1" parent="1" source="v1BBYUreaRFidWBnA6o4-6" target="v1BBYUreaRFidWBnA6o4-4">
          <mxGeometry relative="1" as="geometry">
            <Array as="points">
              <mxPoint x="1122" y="1271" />
            </Array>
          </mxGeometry>
        </mxCell>
        <mxCell id="v1BBYUreaRFidWBnA6o4-35" value="Proof valid" style="verticalAlign=bottom;edgeStyle=elbowEdgeStyle;elbow=vertical;curved=0;rounded=0;dashed=1;dashPattern=2 3;endArrow=block;" edge="1" parent="1" source="v1BBYUreaRFidWBnA6o4-4" target="v1BBYUreaRFidWBnA6o4-6">
          <mxGeometry relative="1" as="geometry">
            <Array as="points">
              <mxPoint x="1119" y="1323" />
            </Array>
          </mxGeometry>
        </mxCell>
        <mxCell id="v1BBYUreaRFidWBnA6o4-36" value="Confirm reservation" style="verticalAlign=bottom;edgeStyle=elbowEdgeStyle;elbow=vertical;curved=0;rounded=0;endArrow=block;" edge="1" parent="1" source="v1BBYUreaRFidWBnA6o4-6" target="v1BBYUreaRFidWBnA6o4-4">
          <mxGeometry relative="1" as="geometry">
            <Array as="points">
              <mxPoint x="1122" y="1375" />
            </Array>
          </mxGeometry>
        </mxCell>
        <mxCell id="v1BBYUreaRFidWBnA6o4-37" value="Reservation confirmed" style="verticalAlign=bottom;edgeStyle=elbowEdgeStyle;elbow=vertical;curved=0;rounded=0;dashed=1;dashPattern=2 3;endArrow=block;" edge="1" parent="1" source="v1BBYUreaRFidWBnA6o4-4" target="v1BBYUreaRFidWBnA6o4-6">
          <mxGeometry relative="1" as="geometry">
            <Array as="points">
              <mxPoint x="1119" y="1427" />
            </Array>
          </mxGeometry>
        </mxCell>
        <mxCell id="v1BBYUreaRFidWBnA6o4-38" value="Send email to hotel with link" style="verticalAlign=bottom;edgeStyle=elbowEdgeStyle;elbow=vertical;curved=0;rounded=0;endArrow=block;" edge="1" parent="1" source="v1BBYUreaRFidWBnA6o4-6" target="v1BBYUreaRFidWBnA6o4-7">
          <mxGeometry relative="1" as="geometry">
            <Array as="points">
              <mxPoint x="1499" y="1479" />
            </Array>
          </mxGeometry>
        </mxCell>
        <mxCell id="v1BBYUreaRFidWBnA6o4-39" value="Email received" style="verticalAlign=bottom;edgeStyle=elbowEdgeStyle;elbow=vertical;curved=0;rounded=0;dashed=1;dashPattern=2 3;endArrow=block;" edge="1" parent="1" source="v1BBYUreaRFidWBnA6o4-7" target="v1BBYUreaRFidWBnA6o4-8">
          <mxGeometry relative="1" as="geometry">
            <Array as="points">
              <mxPoint x="1767" y="1531" />
            </Array>
          </mxGeometry>
        </mxCell>
        <mxCell id="v1BBYUreaRFidWBnA6o4-40" value="(Hotel notified)" style="verticalAlign=bottom;edgeStyle=elbowEdgeStyle;elbow=vertical;curved=0;rounded=0;dashed=1;dashPattern=2 3;endArrow=block;" edge="1" parent="1" source="v1BBYUreaRFidWBnA6o4-8" target="v1BBYUreaRFidWBnA6o4-1">
          <mxGeometry relative="1" as="geometry">
            <Array as="points">
              <mxPoint x="988" y="1583" />
            </Array>
          </mxGeometry>
        </mxCell>
        <mxCell id="v1BBYUreaRFidWBnA6o4-41" value="Get reservation code" style="verticalAlign=bottom;edgeStyle=elbowEdgeStyle;elbow=vertical;curved=0;rounded=0;endArrow=block;" edge="1" parent="1" source="v1BBYUreaRFidWBnA6o4-8" target="v1BBYUreaRFidWBnA6o4-9">
          <mxGeometry relative="1" as="geometry">
            <Array as="points">
              <mxPoint x="1975" y="1635" />
            </Array>
          </mxGeometry>
        </mxCell>
        <mxCell id="v1BBYUreaRFidWBnA6o4-42" value="Provide code" style="verticalAlign=bottom;edgeStyle=elbowEdgeStyle;elbow=vertical;curved=0;rounded=0;dashed=1;dashPattern=2 3;endArrow=block;" edge="1" parent="1" source="v1BBYUreaRFidWBnA6o4-9" target="v1BBYUreaRFidWBnA6o4-8">
          <mxGeometry relative="1" as="geometry">
            <Array as="points">
              <mxPoint x="1978" y="1687" />
            </Array>
          </mxGeometry>
        </mxCell>
        <mxCell id="v1BBYUreaRFidWBnA6o4-43" value="Enter code via link" style="verticalAlign=bottom;edgeStyle=elbowEdgeStyle;elbow=vertical;curved=0;rounded=0;endArrow=block;" edge="1" parent="1" source="v1BBYUreaRFidWBnA6o4-8" target="v1BBYUreaRFidWBnA6o4-4">
          <mxGeometry relative="1" as="geometry">
            <Array as="points">
              <mxPoint x="1391" y="1739" />
            </Array>
          </mxGeometry>
        </mxCell>
        <mxCell id="v1BBYUreaRFidWBnA6o4-44" value="Code saved" style="verticalAlign=bottom;edgeStyle=elbowEdgeStyle;elbow=vertical;curved=0;rounded=0;dashed=1;dashPattern=2 3;endArrow=block;" edge="1" parent="1" source="v1BBYUreaRFidWBnA6o4-4" target="v1BBYUreaRFidWBnA6o4-8">
          <mxGeometry relative="1" as="geometry">
            <Array as="points">
              <mxPoint x="1388" y="1791" />
            </Array>
          </mxGeometry>
        </mxCell>
        <mxCell id="v1BBYUreaRFidWBnA6o4-45" value="Send email to agency with code" style="verticalAlign=bottom;edgeStyle=elbowEdgeStyle;elbow=vertical;curved=0;rounded=0;endArrow=block;" edge="1" parent="1" source="v1BBYUreaRFidWBnA6o4-4" target="v1BBYUreaRFidWBnA6o4-7">
          <mxGeometry relative="1" as="geometry">
            <Array as="points">
              <mxPoint x="1288" y="1843" />
            </Array>
          </mxGeometry>
        </mxCell>
        <mxCell id="v1BBYUreaRFidWBnA6o4-46" value="Email received" style="verticalAlign=bottom;edgeStyle=elbowEdgeStyle;elbow=vertical;curved=0;rounded=0;dashed=1;dashPattern=2 3;endArrow=block;" edge="1" parent="1" source="v1BBYUreaRFidWBnA6o4-7" target="v1BBYUreaRFidWBnA6o4-2">
          <mxGeometry relative="1" as="geometry">
            <Array as="points">
              <mxPoint x="1061" y="1895" />
            </Array>
          </mxGeometry>
        </mxCell>
        <mxCell id="v1BBYUreaRFidWBnA6o4-47" value="Display reservation code" style="verticalAlign=bottom;edgeStyle=elbowEdgeStyle;elbow=vertical;curved=0;rounded=0;dashed=1;dashPattern=2 3;endArrow=block;" edge="1" parent="1" source="v1BBYUreaRFidWBnA6o4-2" target="v1BBYUreaRFidWBnA6o4-1">
          <mxGeometry relative="1" as="geometry">
            <Array as="points">
              <mxPoint x="280" y="1947" />
            </Array>
          </mxGeometry>
        </mxCell>
        <mxCell id="v1BBYUreaRFidWBnA6o4-48" value="Reject reservation" style="verticalAlign=bottom;edgeStyle=elbowEdgeStyle;elbow=vertical;curved=0;rounded=0;endArrow=block;" edge="1" parent="1" source="v1BBYUreaRFidWBnA6o4-6" target="v1BBYUreaRFidWBnA6o4-2">
          <mxGeometry relative="1" as="geometry">
            <Array as="points">
              <mxPoint x="893" y="2045" />
            </Array>
          </mxGeometry>
        </mxCell>
        <mxCell id="v1BBYUreaRFidWBnA6o4-49" value="Show rejection message" style="verticalAlign=bottom;edgeStyle=elbowEdgeStyle;elbow=vertical;curved=0;rounded=0;dashed=1;dashPattern=2 3;endArrow=block;" edge="1" parent="1" source="v1BBYUreaRFidWBnA6o4-2" target="v1BBYUreaRFidWBnA6o4-1">
          <mxGeometry relative="1" as="geometry">
            <Array as="points">
              <mxPoint x="280" y="2097" />
            </Array>
          </mxGeometry>
        </mxCell>
      </root>
    </mxGraphModel>
  </diagram>
  <diagram id="x-u3zJpPY43g3cpRlYM3" name="Page-5">
    <mxGraphModel dx="6562" dy="4124" grid="1" gridSize="10" guides="1" tooltips="1" connect="1" arrows="1" fold="1" page="1" pageScale="1" pageWidth="850" pageHeight="1100" math="0" shadow="0">
      <root>
        <mxCell id="0" />
        <mxCell id="1" parent="0" />
        <mxCell id="OCD_fPxrB7GQkBkISfQn-1" value="Hotel User" style="shape=umlLifeline;perimeter=lifelinePerimeter;whiteSpace=wrap;container=1;dropTarget=0;collapsible=0;recursiveResize=0;outlineConnect=0;portConstraint=eastwest;newEdgeStyle={&quot;edgeStyle&quot;:&quot;elbowEdgeStyle&quot;,&quot;elbow&quot;:&quot;vertical&quot;,&quot;curved&quot;:0,&quot;rounded&quot;:0};participant=umlActor;verticalAlign=bottom;labelPosition=center;verticalLabelPosition=top;align=center;size=65;" vertex="1" parent="1">
          <mxGeometry x="20" y="30" width="35" height="4348" as="geometry" />
        </mxCell>
        <mxCell id="OCD_fPxrB7GQkBkISfQn-2" value="Hotel UI" style="shape=umlLifeline;perimeter=lifelinePerimeter;whiteSpace=wrap;container=1;dropTarget=0;collapsible=0;recursiveResize=0;outlineConnect=0;portConstraint=eastwest;newEdgeStyle={&quot;edgeStyle&quot;:&quot;elbowEdgeStyle&quot;,&quot;elbow&quot;:&quot;vertical&quot;,&quot;curved&quot;:0,&quot;rounded&quot;:0};size=65;" vertex="1" parent="1">
          <mxGeometry x="334" y="30" width="150" height="4348" as="geometry" />
        </mxCell>
        <mxCell id="OCD_fPxrB7GQkBkISfQn-3" value="HotelAuthController" style="shape=umlLifeline;perimeter=lifelinePerimeter;whiteSpace=wrap;container=1;dropTarget=0;collapsible=0;recursiveResize=0;outlineConnect=0;portConstraint=eastwest;newEdgeStyle={&quot;edgeStyle&quot;:&quot;elbowEdgeStyle&quot;,&quot;elbow&quot;:&quot;vertical&quot;,&quot;curved&quot;:0,&quot;rounded&quot;:0};size=65;" vertex="1" parent="1">
          <mxGeometry x="648" y="30" width="163" height="4348" as="geometry" />
        </mxCell>
        <mxCell id="OCD_fPxrB7GQkBkISfQn-4" value="HotelAuthService" style="shape=umlLifeline;perimeter=lifelinePerimeter;whiteSpace=wrap;container=1;dropTarget=0;collapsible=0;recursiveResize=0;outlineConnect=0;portConstraint=eastwest;newEdgeStyle={&quot;edgeStyle&quot;:&quot;elbowEdgeStyle&quot;,&quot;elbow&quot;:&quot;vertical&quot;,&quot;curved&quot;:0,&quot;rounded&quot;:0};size=65;" vertex="1" parent="1">
          <mxGeometry x="907" y="30" width="150" height="4348" as="geometry" />
        </mxCell>
        <mxCell id="OCD_fPxrB7GQkBkISfQn-5" value="users" style="shape=umlLifeline;perimeter=lifelinePerimeter;whiteSpace=wrap;container=1;dropTarget=0;collapsible=0;recursiveResize=0;outlineConnect=0;portConstraint=eastwest;newEdgeStyle={&quot;edgeStyle&quot;:&quot;elbowEdgeStyle&quot;,&quot;elbow&quot;:&quot;vertical&quot;,&quot;curved&quot;:0,&quot;rounded&quot;:0};size=65;" vertex="1" parent="1">
          <mxGeometry x="1215" y="30" width="150" height="4348" as="geometry" />
        </mxCell>
        <mxCell id="OCD_fPxrB7GQkBkISfQn-12" value="Access Dashboard" style="verticalAlign=bottom;edgeStyle=elbowEdgeStyle;elbow=vertical;curved=0;rounded=0;endArrow=block;" edge="1" parent="1">
          <mxGeometry relative="1" as="geometry">
            <Array as="points">
              <mxPoint x="261" y="147" />
            </Array>
            <mxPoint x="36.18181818181847" y="147" as="sourcePoint" />
            <mxPoint x="408.5" y="147" as="targetPoint" />
          </mxGeometry>
        </mxCell>
        <mxCell id="OCD_fPxrB7GQkBkISfQn-13" value="Enter credentials (email, password)" style="verticalAlign=bottom;edgeStyle=elbowEdgeStyle;elbow=vertical;curved=0;rounded=0;endArrow=block;" edge="1" parent="1">
          <mxGeometry relative="1" as="geometry">
            <Array as="points">
              <mxPoint x="261" y="479" />
            </Array>
            <mxPoint x="36" y="479" as="sourcePoint" />
            <mxPoint x="408.5" y="479" as="targetPoint" />
          </mxGeometry>
        </mxCell>
        <mxCell id="OCD_fPxrB7GQkBkISfQn-14" value="signin(email, password, rememberMe)" style="verticalAlign=bottom;edgeStyle=elbowEdgeStyle;elbow=vertical;curved=0;rounded=0;endArrow=block;" edge="1" parent="1">
          <mxGeometry x="-0.0016" relative="1" as="geometry">
            <Array as="points">
              <mxPoint x="578" y="531" />
            </Array>
            <mxPoint x="407.5" y="531" as="sourcePoint" />
            <mxPoint x="729" y="531" as="targetPoint" />
            <mxPoint as="offset" />
          </mxGeometry>
        </mxCell>
        <mxCell id="OCD_fPxrB7GQkBkISfQn-15" value="signin(email, password, rememberMe)" style="verticalAlign=bottom;edgeStyle=elbowEdgeStyle;elbow=vertical;curved=0;rounded=0;endArrow=block;" edge="1" parent="1">
          <mxGeometry relative="1" as="geometry">
            <Array as="points">
              <mxPoint x="864" y="583" />
            </Array>
            <mxPoint x="728" y="583" as="sourcePoint" />
            <mxPoint x="981.5" y="583" as="targetPoint" />
          </mxGeometry>
        </mxCell>
        <mxCell id="OCD_fPxrB7GQkBkISfQn-16" value="findOne(email, role: HOTEL_USER)" style="verticalAlign=bottom;edgeStyle=elbowEdgeStyle;elbow=vertical;curved=0;rounded=0;endArrow=block;" edge="1" parent="1">
          <mxGeometry relative="1" as="geometry">
            <Array as="points">
              <mxPoint x="1145" y="635" />
            </Array>
            <mxPoint x="980.5" y="635" as="sourcePoint" />
            <mxPoint x="1289.5" y="635" as="targetPoint" />
          </mxGeometry>
        </mxCell>
        <mxCell id="OCD_fPxrB7GQkBkISfQn-17" value="user" style="verticalAlign=bottom;edgeStyle=elbowEdgeStyle;elbow=vertical;curved=0;rounded=0;dashed=1;dashPattern=2 3;endArrow=block;" edge="1" parent="1">
          <mxGeometry relative="1" as="geometry">
            <Array as="points">
              <mxPoint x="1148" y="706" />
            </Array>
            <mxPoint x="1289.4999999999995" y="706" as="sourcePoint" />
            <mxPoint x="981.25" y="706" as="targetPoint" />
          </mxGeometry>
        </mxCell>
        <mxCell id="OCD_fPxrB7GQkBkISfQn-18" value="Validate password" style="curved=1;endArrow=block;rounded=0;" edge="1" parent="1">
          <mxGeometry relative="1" as="geometry">
            <Array as="points">
              <mxPoint x="1037" y="735" />
              <mxPoint x="1037" y="765" />
            </Array>
            <mxPoint x="984.5" y="735" as="sourcePoint" />
            <mxPoint x="984.5" y="765" as="targetPoint" />
          </mxGeometry>
        </mxCell>
        <mxCell id="OCD_fPxrB7GQkBkISfQn-19" value="Generate JWT token" style="curved=1;endArrow=block;rounded=0;" edge="1" parent="1">
          <mxGeometry relative="1" as="geometry">
            <Array as="points">
              <mxPoint x="1042.5" y="840" />
              <mxPoint x="1042.5" y="870" />
            </Array>
            <mxPoint x="990" y="840" as="sourcePoint" />
            <mxPoint x="990" y="870" as="targetPoint" />
          </mxGeometry>
        </mxCell>
        <mxCell id="OCD_fPxrB7GQkBkISfQn-20" value="user &amp; token" style="verticalAlign=bottom;edgeStyle=elbowEdgeStyle;elbow=vertical;curved=0;rounded=0;dashed=1;dashPattern=2 3;endArrow=block;" edge="1" parent="1">
          <mxGeometry relative="1" as="geometry">
            <Array as="points">
              <mxPoint x="867" y="905" />
            </Array>
            <mxPoint x="981.5" y="905" as="sourcePoint" />
            <mxPoint x="728" y="905" as="targetPoint" />
          </mxGeometry>
        </mxCell>
        <mxCell id="OCD_fPxrB7GQkBkISfQn-21" value="success response with user &amp; token" style="verticalAlign=bottom;edgeStyle=elbowEdgeStyle;elbow=vertical;curved=0;rounded=0;dashed=1;dashPattern=2 3;endArrow=block;" edge="1" parent="1">
          <mxGeometry relative="1" as="geometry">
            <Array as="points">
              <mxPoint x="581" y="967" />
            </Array>
            <mxPoint x="729" y="967" as="sourcePoint" />
            <mxPoint x="407.5" y="967" as="targetPoint" />
          </mxGeometry>
        </mxCell>
        <mxCell id="OCD_fPxrB7GQkBkISfQn-22" value="Store token using next auth" style="curved=1;endArrow=block;rounded=0;" edge="1" parent="1">
          <mxGeometry relative="1" as="geometry">
            <Array as="points">
              <mxPoint x="466" y="1009" />
              <mxPoint x="466" y="1039" />
            </Array>
            <mxPoint x="413.5" y="1009" as="sourcePoint" />
            <mxPoint x="413.5" y="1039" as="targetPoint" />
          </mxGeometry>
        </mxCell>
        <mxCell id="OCD_fPxrB7GQkBkISfQn-23" value="Redirect to dashboard" style="curved=1;endArrow=block;rounded=0;" edge="1" parent="1">
          <mxGeometry relative="1" as="geometry">
            <Array as="points">
              <mxPoint x="466" y="1091" />
              <mxPoint x="466" y="1121" />
            </Array>
            <mxPoint x="413.5" y="1091" as="sourcePoint" />
            <mxPoint x="413.5" y="1121" as="targetPoint" />
          </mxGeometry>
        </mxCell>
        <mxCell id="OCD_fPxrB7GQkBkISfQn-33" value="getHotelUserData(token)" style="verticalAlign=bottom;edgeStyle=elbowEdgeStyle;elbow=vertical;curved=0;rounded=0;endArrow=block;" edge="1" parent="1">
          <mxGeometry x="-0.0016" relative="1" as="geometry">
            <Array as="points">
              <mxPoint x="578" y="181" />
            </Array>
            <mxPoint x="407.5" y="181" as="sourcePoint" />
            <mxPoint x="729" y="181" as="targetPoint" />
            <mxPoint as="offset" />
          </mxGeometry>
        </mxCell>
        <mxCell id="OCD_fPxrB7GQkBkISfQn-34" value="getHotelUserData(token)" style="verticalAlign=bottom;edgeStyle=elbowEdgeStyle;elbow=vertical;curved=0;rounded=0;endArrow=block;" edge="1" parent="1">
          <mxGeometry relative="1" as="geometry">
            <Array as="points">
              <mxPoint x="864" y="233" />
            </Array>
            <mxPoint x="728" y="233" as="sourcePoint" />
            <mxPoint x="981.5" y="233" as="targetPoint" />
          </mxGeometry>
        </mxCell>
        <mxCell id="OCD_fPxrB7GQkBkISfQn-37" value="Decode JWT token" style="curved=1;endArrow=block;rounded=0;" edge="1" parent="1">
          <mxGeometry relative="1" as="geometry">
            <Array as="points">
              <mxPoint x="1037" y="253" />
              <mxPoint x="1037" y="283" />
            </Array>
            <mxPoint x="984.5" y="253" as="sourcePoint" />
            <mxPoint x="984.5" y="283" as="targetPoint" />
          </mxGeometry>
        </mxCell>
        <mxCell id="OCD_fPxrB7GQkBkISfQn-38" value="alt" style="shape=umlFrame;pointerEvents=0;dropTarget=0;strokeColor=#B3B3B3;height=20;width=30;strokeWidth=3;" vertex="1" parent="1">
          <mxGeometry y="120" width="1310" height="1500" as="geometry" />
        </mxCell>
        <mxCell id="OCD_fPxrB7GQkBkISfQn-39" value="[Invalid Token]" style="text;strokeColor=none;fillColor=none;align=center;verticalAlign=middle;whiteSpace=wrap;" vertex="1" parent="OCD_fPxrB7GQkBkISfQn-38">
          <mxGeometry x="32.03" width="1277.97" height="16.39344262295082" as="geometry" />
        </mxCell>
        <mxCell id="OCD_fPxrB7GQkBkISfQn-41" value="findOne(payload.id, role: HOTEL_USER)" style="verticalAlign=bottom;edgeStyle=elbowEdgeStyle;elbow=vertical;curved=0;rounded=0;endArrow=block;" edge="1" parent="1">
          <mxGeometry relative="1" as="geometry">
            <Array as="points">
              <mxPoint x="1144.5" y="1431" />
            </Array>
            <mxPoint x="980" y="1431" as="sourcePoint" />
            <mxPoint x="1289" y="1431" as="targetPoint" />
          </mxGeometry>
        </mxCell>
        <mxCell id="OCD_fPxrB7GQkBkISfQn-44" value="user" style="verticalAlign=bottom;edgeStyle=elbowEdgeStyle;elbow=vertical;curved=0;rounded=0;dashed=1;dashPattern=2 3;endArrow=block;" edge="1" parent="1">
          <mxGeometry relative="1" as="geometry">
            <Array as="points">
              <mxPoint x="867" y="1516" />
            </Array>
            <mxPoint x="981.5" y="1516" as="sourcePoint" />
            <mxPoint x="728" y="1516" as="targetPoint" />
          </mxGeometry>
        </mxCell>
        <mxCell id="OCD_fPxrB7GQkBkISfQn-46" value="user" style="verticalAlign=bottom;edgeStyle=elbowEdgeStyle;elbow=vertical;curved=0;rounded=0;dashed=1;dashPattern=2 3;endArrow=block;" edge="1" parent="1">
          <mxGeometry relative="1" as="geometry">
            <Array as="points">
              <mxPoint x="1148" y="1461" />
            </Array>
            <mxPoint x="1289.4999999999995" y="1461" as="sourcePoint" />
            <mxPoint x="981.25" y="1461" as="targetPoint" />
          </mxGeometry>
        </mxCell>
        <mxCell id="OCD_fPxrB7GQkBkISfQn-47" value="unauthorized" style="verticalAlign=bottom;edgeStyle=elbowEdgeStyle;elbow=vertical;curved=0;rounded=0;dashed=1;dashPattern=2 3;endArrow=block;" edge="1" parent="1" source="OCD_fPxrB7GQkBkISfQn-4">
          <mxGeometry relative="1" as="geometry">
            <Array as="points">
              <mxPoint x="896.75" y="360" />
            </Array>
            <mxPoint x="1038.2499999999995" y="360" as="sourcePoint" />
            <mxPoint x="730" y="360" as="targetPoint" />
          </mxGeometry>
        </mxCell>
        <mxCell id="OCD_fPxrB7GQkBkISfQn-48" value="unauthorized" style="verticalAlign=bottom;edgeStyle=elbowEdgeStyle;elbow=vertical;curved=0;rounded=0;dashed=1;dashPattern=2 3;endArrow=block;" edge="1" parent="1">
          <mxGeometry relative="1" as="geometry">
            <Array as="points">
              <mxPoint x="576.75" y="390" />
            </Array>
            <mxPoint x="729" y="390" as="sourcePoint" />
            <mxPoint x="408.3888888888889" y="390" as="targetPoint" />
          </mxGeometry>
        </mxCell>
        <mxCell id="OCD_fPxrB7GQkBkISfQn-49" value="Redirect to login page" style="verticalAlign=bottom;edgeStyle=elbowEdgeStyle;elbow=vertical;curved=0;rounded=0;dashed=1;dashPattern=2 3;endArrow=block;" edge="1" parent="1" source="OCD_fPxrB7GQkBkISfQn-2" target="OCD_fPxrB7GQkBkISfQn-1">
          <mxGeometry relative="1" as="geometry">
            <Array as="points">
              <mxPoint x="256.75" y="421" />
            </Array>
            <mxPoint x="409" y="421" as="sourcePoint" />
            <mxPoint x="88.38888888888891" y="421" as="targetPoint" />
          </mxGeometry>
        </mxCell>
        <mxCell id="OCD_fPxrB7GQkBkISfQn-50" value="" style="verticalAlign=bottom;edgeStyle=elbowEdgeStyle;elbow=vertical;curved=0;rounded=0;dashed=1;dashPattern=2 3;endArrow=block;movable=1;resizable=1;rotatable=1;deletable=1;editable=1;locked=0;connectable=1;" edge="1" parent="1">
          <mxGeometry relative="1" as="geometry">
            <Array as="points">
              <mxPoint x="410" y="1549" />
            </Array>
            <mxPoint x="729" y="1548" as="sourcePoint" />
            <mxPoint x="408.6666666666665" y="1548.9999999999995" as="targetPoint" />
          </mxGeometry>
        </mxCell>
        <mxCell id="OCD_fPxrB7GQkBkISfQn-51" value="&lt;div&gt;success response with user&lt;/div&gt;" style="edgeLabel;html=1;align=center;verticalAlign=middle;resizable=0;points=[];" vertex="1" connectable="0" parent="OCD_fPxrB7GQkBkISfQn-50">
          <mxGeometry x="-0.0197" y="1" relative="1" as="geometry">
            <mxPoint x="4" y="-9" as="offset" />
          </mxGeometry>
        </mxCell>
        <mxCell id="OCD_fPxrB7GQkBkISfQn-40" value="[Valid Token]" style="shape=line;whiteSpace=wrap;verticalAlign=top;labelPosition=center;verticalLabelPosition=middle;align=center;strokeColor=#B3B3B3;strokeWidth=3;" vertex="1" parent="1">
          <mxGeometry y="1210" width="1310" height="7.72" as="geometry" />
        </mxCell>
        <mxCell id="OCD_fPxrB7GQkBkISfQn-52" value="&lt;div&gt;access add rate plan page&lt;/div&gt;" style="endArrow=classic;html=1;rounded=0;" edge="1" parent="1">
          <mxGeometry x="-0.0139" y="16" width="50" height="50" relative="1" as="geometry">
            <mxPoint x="36.66666666666674" y="1705" as="sourcePoint" />
            <mxPoint x="408.5" y="1705" as="targetPoint" />
            <mxPoint x="1" as="offset" />
          </mxGeometry>
        </mxCell>
        <mxCell id="OCD_fPxrB7GQkBkISfQn-54" value="Verify permissions" style="curved=1;endArrow=block;rounded=0;" edge="1" parent="1">
          <mxGeometry relative="1" as="geometry">
            <Array as="points">
              <mxPoint x="460" y="1730" />
              <mxPoint x="460" y="1760" />
            </Array>
            <mxPoint x="407.5" y="1730" as="sourcePoint" />
            <mxPoint x="407.5" y="1760" as="targetPoint" />
          </mxGeometry>
        </mxCell>
        <mxCell id="OCD_fPxrB7GQkBkISfQn-59" value="alt" style="shape=umlFrame;pointerEvents=0;dropTarget=0;strokeColor=#B3B3B3;height=20;width=30;strokeWidth=3;" vertex="1" parent="1">
          <mxGeometry x="-36" y="1640" width="2276" height="2700" as="geometry" />
        </mxCell>
        <mxCell id="OCD_fPxrB7GQkBkISfQn-60" value="[add rate plan]" style="text;strokeColor=none;fillColor=none;align=center;verticalAlign=middle;whiteSpace=wrap;" vertex="1" parent="OCD_fPxrB7GQkBkISfQn-59">
          <mxGeometry x="67.08586547085203" width="2206.607515695068" height="21.906693711967545" as="geometry" />
        </mxCell>
        <mxCell id="OCD_fPxrB7GQkBkISfQn-63" value="display add rate plan form" style="verticalAlign=bottom;edgeStyle=elbowEdgeStyle;elbow=vertical;curved=0;rounded=0;dashed=1;dashPattern=2 3;endArrow=block;" edge="1" parent="1">
          <mxGeometry relative="1" as="geometry">
            <Array as="points">
              <mxPoint x="264" y="1786" />
            </Array>
            <mxPoint x="408.5" y="1786" as="sourcePoint" />
            <mxPoint x="36" y="1786" as="targetPoint" />
          </mxGeometry>
        </mxCell>
        <mxCell id="OCD_fPxrB7GQkBkISfQn-64" value="fill rate plan details" style="endArrow=classic;html=1;rounded=0;" edge="1" parent="1">
          <mxGeometry x="-0.0139" y="16" width="50" height="50" relative="1" as="geometry">
            <mxPoint x="36.66666666666674" y="1825" as="sourcePoint" />
            <mxPoint x="408.5" y="1825" as="targetPoint" />
            <mxPoint x="1" as="offset" />
          </mxGeometry>
        </mxCell>
        <mxCell id="OCD_fPxrB7GQkBkISfQn-65" value="select room type" style="endArrow=classic;html=1;rounded=0;" edge="1" parent="1">
          <mxGeometry x="-0.0139" y="16" width="50" height="50" relative="1" as="geometry">
            <mxPoint x="36.66666666666674" y="1865" as="sourcePoint" />
            <mxPoint x="408.5" y="1865" as="targetPoint" />
            <mxPoint x="1" as="offset" />
          </mxGeometry>
        </mxCell>
        <mxCell id="OCD_fPxrB7GQkBkISfQn-66" value="select rate type" style="endArrow=classic;html=1;rounded=0;" edge="1" parent="1">
          <mxGeometry x="-0.0139" y="16" width="50" height="50" relative="1" as="geometry">
            <mxPoint x="36.66666666666674" y="1905" as="sourcePoint" />
            <mxPoint x="408.5" y="1905" as="targetPoint" />
            <mxPoint x="1" as="offset" />
          </mxGeometry>
        </mxCell>
        <mxCell id="OCD_fPxrB7GQkBkISfQn-70" value="alt" style="shape=umlFrame;pointerEvents=0;dropTarget=0;strokeColor=#B3B3B3;height=20;width=30;strokeWidth=3;" vertex="1" parent="1">
          <mxGeometry y="1939" width="580" height="290" as="geometry" />
        </mxCell>
        <mxCell id="OCD_fPxrB7GQkBkISfQn-71" value="[dervied type]" style="text;strokeColor=none;fillColor=none;align=center;verticalAlign=middle;whiteSpace=wrap;" vertex="1" parent="OCD_fPxrB7GQkBkISfQn-70">
          <mxGeometry x="17.09473684210526" width="562.31" height="30.526315789473685" as="geometry" />
        </mxCell>
        <mxCell id="OCD_fPxrB7GQkBkISfQn-72" value="check derived options" style="endArrow=classic;html=1;rounded=0;" edge="1" parent="1">
          <mxGeometry x="-0.0139" y="16" width="50" height="50" relative="1" as="geometry">
            <mxPoint x="36.66666666666674" y="2015" as="sourcePoint" />
            <mxPoint x="408.5" y="2015" as="targetPoint" />
            <mxPoint x="1" as="offset" />
          </mxGeometry>
        </mxCell>
        <mxCell id="OCD_fPxrB7GQkBkISfQn-73" value="alt" style="shape=umlFrame;pointerEvents=0;dropTarget=0;strokeColor=#B3B3B3;height=20;width=30;strokeWidth=3;" vertex="1" parent="1">
          <mxGeometry x="20" y="2049" width="510" height="150" as="geometry" />
        </mxCell>
        <mxCell id="OCD_fPxrB7GQkBkISfQn-74" value="[rate derived]" style="text;strokeColor=none;fillColor=none;align=center;verticalAlign=middle;whiteSpace=wrap;" vertex="1" parent="OCD_fPxrB7GQkBkISfQn-73">
          <mxGeometry x="15.03157894736842" width="494.445" height="15.789473684210527" as="geometry" />
        </mxCell>
        <mxCell id="OCD_fPxrB7GQkBkISfQn-75" value="select master plan" style="endArrow=classic;html=1;rounded=0;" edge="1" parent="1">
          <mxGeometry x="-0.0139" y="16" width="50" height="50" relative="1" as="geometry">
            <mxPoint x="36.66666666666674" y="1985" as="sourcePoint" />
            <mxPoint x="408.5" y="1985" as="targetPoint" />
            <mxPoint x="1" as="offset" />
          </mxGeometry>
        </mxCell>
        <mxCell id="OCD_fPxrB7GQkBkISfQn-76" value="select rack type(additional or multiply)" style="endArrow=classic;html=1;rounded=0;" edge="1" parent="1">
          <mxGeometry x="-0.0139" y="16" width="50" height="50" relative="1" as="geometry">
            <mxPoint x="36.66666666666674" y="2105" as="sourcePoint" />
            <mxPoint x="408.5" y="2105" as="targetPoint" />
            <mxPoint x="1" as="offset" />
          </mxGeometry>
        </mxCell>
        <mxCell id="OCD_fPxrB7GQkBkISfQn-77" value="select rack value" style="endArrow=classic;html=1;rounded=0;" edge="1" parent="1">
          <mxGeometry x="-0.0139" y="16" width="50" height="50" relative="1" as="geometry">
            <mxPoint x="36.66666666666674" y="2145" as="sourcePoint" />
            <mxPoint x="408.5" y="2145" as="targetPoint" />
            <mxPoint x="1" as="offset" />
          </mxGeometry>
        </mxCell>
        <mxCell id="OCD_fPxrB7GQkBkISfQn-78" value="Create rate plan" style="endArrow=classic;html=1;rounded=0;" edge="1" parent="1">
          <mxGeometry x="-0.0139" y="16" width="50" height="50" relative="1" as="geometry">
            <mxPoint x="36.66666666666674" y="2265" as="sourcePoint" />
            <mxPoint x="408.5" y="2265" as="targetPoint" />
            <mxPoint x="1" as="offset" />
          </mxGeometry>
        </mxCell>
        <mxCell id="OCD_fPxrB7GQkBkISfQn-79" value="RatePlanController" style="shape=umlLifeline;perimeter=lifelinePerimeter;whiteSpace=wrap;container=1;dropTarget=0;collapsible=0;recursiveResize=0;outlineConnect=0;portConstraint=eastwest;newEdgeStyle={&quot;edgeStyle&quot;:&quot;elbowEdgeStyle&quot;,&quot;elbow&quot;:&quot;vertical&quot;,&quot;curved&quot;:0,&quot;rounded&quot;:0};size=65;" vertex="1" parent="1">
          <mxGeometry x="1548" y="30" width="163" height="4348" as="geometry" />
        </mxCell>
        <mxCell id="OCD_fPxrB7GQkBkISfQn-80" value="RatePlanService" style="shape=umlLifeline;perimeter=lifelinePerimeter;whiteSpace=wrap;container=1;dropTarget=0;collapsible=0;recursiveResize=0;outlineConnect=0;portConstraint=eastwest;newEdgeStyle={&quot;edgeStyle&quot;:&quot;elbowEdgeStyle&quot;,&quot;elbow&quot;:&quot;vertical&quot;,&quot;curved&quot;:0,&quot;rounded&quot;:0};size=65;" vertex="1" parent="1">
          <mxGeometry x="1807" y="30" width="150" height="4348" as="geometry" />
        </mxCell>
        <mxCell id="OCD_fPxrB7GQkBkISfQn-81" value="rate_plans" style="shape=umlLifeline;perimeter=lifelinePerimeter;whiteSpace=wrap;container=1;dropTarget=0;collapsible=0;recursiveResize=0;outlineConnect=0;portConstraint=eastwest;newEdgeStyle={&quot;edgeStyle&quot;:&quot;elbowEdgeStyle&quot;,&quot;elbow&quot;:&quot;vertical&quot;,&quot;curved&quot;:0,&quot;rounded&quot;:0};size=65;" vertex="1" parent="1">
          <mxGeometry x="2115" y="30" width="150" height="4348" as="geometry" />
        </mxCell>
        <mxCell id="OCD_fPxrB7GQkBkISfQn-82" value="create(createRatePlanDto)" style="endArrow=classic;html=1;rounded=0;" edge="1" parent="1">
          <mxGeometry x="-0.0139" y="16" width="50" height="50" relative="1" as="geometry">
            <mxPoint x="406.66666666666674" y="2305" as="sourcePoint" />
            <mxPoint x="1629.0000000000005" y="2305" as="targetPoint" />
            <mxPoint x="1" as="offset" />
          </mxGeometry>
        </mxCell>
        <mxCell id="OCD_fPxrB7GQkBkISfQn-83" value="create(createRatePlanDto)" style="endArrow=classic;html=1;rounded=0;" edge="1" parent="1">
          <mxGeometry x="-0.0139" y="16" width="50" height="50" relative="1" as="geometry">
            <mxPoint x="1628.8888888888887" y="2335" as="sourcePoint" />
            <mxPoint x="1881.5" y="2335" as="targetPoint" />
            <mxPoint x="1" as="offset" />
          </mxGeometry>
        </mxCell>
        <mxCell id="OCD_fPxrB7GQkBkISfQn-84" value="save(createRatePlanDto)" style="endArrow=classic;html=1;rounded=0;" edge="1" parent="1">
          <mxGeometry x="-0.0139" y="16" width="50" height="50" relative="1" as="geometry">
            <mxPoint x="1879.9988888888886" y="2365" as="sourcePoint" />
            <mxPoint x="2189.5" y="2365" as="targetPoint" />
            <mxPoint x="1" as="offset" />
          </mxGeometry>
        </mxCell>
        <mxCell id="OCD_fPxrB7GQkBkISfQn-85" value="ratePlan" style="verticalAlign=bottom;edgeStyle=elbowEdgeStyle;elbow=vertical;curved=0;rounded=0;dashed=1;dashPattern=2 3;endArrow=block;" edge="1" parent="1">
          <mxGeometry relative="1" as="geometry">
            <Array as="points">
              <mxPoint x="2046.75" y="2419" />
            </Array>
            <mxPoint x="2188.2499999999995" y="2419" as="sourcePoint" />
            <mxPoint x="1880" y="2419" as="targetPoint" />
          </mxGeometry>
        </mxCell>
        <mxCell id="OCD_fPxrB7GQkBkISfQn-86" value="ratePlan" style="verticalAlign=bottom;edgeStyle=elbowEdgeStyle;elbow=vertical;curved=0;rounded=0;dashed=1;dashPattern=2 3;endArrow=block;" edge="1" parent="1">
          <mxGeometry relative="1" as="geometry">
            <Array as="points">
              <mxPoint x="1796.75" y="2459" />
            </Array>
            <mxPoint x="1880" y="2459" as="sourcePoint" />
            <mxPoint x="1630" y="2459" as="targetPoint" />
          </mxGeometry>
        </mxCell>
        <mxCell id="OCD_fPxrB7GQkBkISfQn-87" value="ratePlan" style="verticalAlign=bottom;edgeStyle=elbowEdgeStyle;elbow=vertical;curved=0;rounded=0;dashed=1;dashPattern=2 3;endArrow=block;" edge="1" parent="1">
          <mxGeometry relative="1" as="geometry">
            <Array as="points">
              <mxPoint x="1546.75" y="2509" />
            </Array>
            <mxPoint x="1630" y="2509" as="sourcePoint" />
            <mxPoint x="408.07142857142844" y="2509" as="targetPoint" />
          </mxGeometry>
        </mxCell>
        <mxCell id="OCD_fPxrB7GQkBkISfQn-88" value="success message" style="verticalAlign=bottom;edgeStyle=elbowEdgeStyle;elbow=vertical;curved=0;rounded=0;dashed=1;dashPattern=2 3;endArrow=block;" edge="1" parent="1">
          <mxGeometry relative="1" as="geometry">
            <Array as="points">
              <mxPoint x="268" y="2549" />
            </Array>
            <mxPoint x="408.5" y="2549" as="sourcePoint" />
            <mxPoint x="36.57142857142844" y="2549" as="targetPoint" />
          </mxGeometry>
        </mxCell>
        <mxCell id="OCD_fPxrB7GQkBkISfQn-90" value="redirect to rate plans search page" style="verticalAlign=bottom;edgeStyle=elbowEdgeStyle;elbow=vertical;curved=0;rounded=0;dashed=1;dashPattern=2 3;endArrow=block;" edge="1" parent="1">
          <mxGeometry relative="1" as="geometry">
            <Array as="points">
              <mxPoint x="268" y="2599" />
            </Array>
            <mxPoint x="409" y="2599" as="sourcePoint" />
            <mxPoint x="37" y="2599" as="targetPoint" />
          </mxGeometry>
        </mxCell>
        <mxCell id="OCD_fPxrB7GQkBkISfQn-91" value="search()" style="endArrow=classic;html=1;rounded=0;" edge="1" parent="1">
          <mxGeometry x="-0.0139" y="16" width="50" height="50" relative="1" as="geometry">
            <mxPoint x="406.66666666666674" y="2645" as="sourcePoint" />
            <mxPoint x="1629.0000000000005" y="2645" as="targetPoint" />
            <mxPoint x="1" as="offset" />
          </mxGeometry>
        </mxCell>
        <mxCell id="OCD_fPxrB7GQkBkISfQn-92" value="search()" style="endArrow=classic;html=1;rounded=0;" edge="1" parent="1">
          <mxGeometry x="-0.0139" y="16" width="50" height="50" relative="1" as="geometry">
            <mxPoint x="1628.8888888888887" y="2685" as="sourcePoint" />
            <mxPoint x="1881.5" y="2685" as="targetPoint" />
            <mxPoint x="1" as="offset" />
          </mxGeometry>
        </mxCell>
        <mxCell id="OCD_fPxrB7GQkBkISfQn-93" value="find()" style="endArrow=classic;html=1;rounded=0;" edge="1" parent="1">
          <mxGeometry x="-0.0139" y="16" width="50" height="50" relative="1" as="geometry">
            <mxPoint x="1879.9988888888886" y="2725" as="sourcePoint" />
            <mxPoint x="2190" y="2725" as="targetPoint" />
            <mxPoint x="1" as="offset" />
          </mxGeometry>
        </mxCell>
        <mxCell id="OCD_fPxrB7GQkBkISfQn-94" value="ratePlans" style="verticalAlign=bottom;edgeStyle=elbowEdgeStyle;elbow=vertical;curved=0;rounded=0;dashed=1;dashPattern=2 3;endArrow=block;" edge="1" parent="1">
          <mxGeometry relative="1" as="geometry">
            <Array as="points">
              <mxPoint x="2046.75" y="2779" />
            </Array>
            <mxPoint x="2188.2499999999995" y="2779" as="sourcePoint" />
            <mxPoint x="1880" y="2779" as="targetPoint" />
          </mxGeometry>
        </mxCell>
        <mxCell id="OCD_fPxrB7GQkBkISfQn-95" value="ratePlans" style="verticalAlign=bottom;edgeStyle=elbowEdgeStyle;elbow=vertical;curved=0;rounded=0;dashed=1;dashPattern=2 3;endArrow=block;" edge="1" parent="1">
          <mxGeometry relative="1" as="geometry">
            <Array as="points">
              <mxPoint x="1796.75" y="2809" />
            </Array>
            <mxPoint x="1880" y="2809" as="sourcePoint" />
            <mxPoint x="1630" y="2809" as="targetPoint" />
          </mxGeometry>
        </mxCell>
        <mxCell id="OCD_fPxrB7GQkBkISfQn-96" value="ratePlans" style="verticalAlign=bottom;edgeStyle=elbowEdgeStyle;elbow=vertical;curved=0;rounded=0;dashed=1;dashPattern=2 3;endArrow=block;" edge="1" parent="1">
          <mxGeometry relative="1" as="geometry">
            <Array as="points">
              <mxPoint x="1546.75" y="2859" />
            </Array>
            <mxPoint x="1630" y="2859" as="sourcePoint" />
            <mxPoint x="408" y="2859" as="targetPoint" />
          </mxGeometry>
        </mxCell>
        <mxCell id="OCD_fPxrB7GQkBkISfQn-97" value="display rate plans" style="verticalAlign=bottom;edgeStyle=elbowEdgeStyle;elbow=vertical;curved=0;rounded=0;dashed=1;dashPattern=2 3;endArrow=block;" edge="1" parent="1">
          <mxGeometry relative="1" as="geometry">
            <Array as="points">
              <mxPoint x="268" y="2889" />
            </Array>
            <mxPoint x="409" y="2889" as="sourcePoint" />
            <mxPoint x="37" y="2889" as="targetPoint" />
          </mxGeometry>
        </mxCell>
        <mxCell id="OCD_fPxrB7GQkBkISfQn-98" value="select rate plan to update" style="endArrow=classic;html=1;rounded=0;" edge="1" parent="1">
          <mxGeometry x="-0.0139" y="16" width="50" height="50" relative="1" as="geometry">
            <mxPoint x="36.66666666666674" y="3065" as="sourcePoint" />
            <mxPoint x="408.5" y="3065" as="targetPoint" />
            <mxPoint x="1" as="offset" />
          </mxGeometry>
        </mxCell>
        <mxCell id="OCD_fPxrB7GQkBkISfQn-99" value="findById(id)" style="endArrow=classic;html=1;rounded=0;" edge="1" parent="1">
          <mxGeometry x="-0.0139" y="16" width="50" height="50" relative="1" as="geometry">
            <mxPoint x="406.66666666666674" y="3145" as="sourcePoint" />
            <mxPoint x="1629" y="3145" as="targetPoint" />
            <mxPoint x="1" as="offset" />
          </mxGeometry>
        </mxCell>
        <mxCell id="OCD_fPxrB7GQkBkISfQn-100" value="findById(id)" style="endArrow=classic;html=1;rounded=0;" edge="1" parent="1">
          <mxGeometry x="-0.0139" y="16" width="50" height="50" relative="1" as="geometry">
            <mxPoint x="1628.8888888888887" y="3175" as="sourcePoint" />
            <mxPoint x="1881.5" y="3175" as="targetPoint" />
            <mxPoint x="1" as="offset" />
          </mxGeometry>
        </mxCell>
        <mxCell id="OCD_fPxrB7GQkBkISfQn-101" value="findOne(id)" style="endArrow=classic;html=1;rounded=0;" edge="1" parent="1">
          <mxGeometry x="-0.0139" y="16" width="50" height="50" relative="1" as="geometry">
            <mxPoint x="1879.9988888888886" y="3205" as="sourcePoint" />
            <mxPoint x="2190" y="3205" as="targetPoint" />
            <mxPoint x="1" as="offset" />
          </mxGeometry>
        </mxCell>
        <mxCell id="OCD_fPxrB7GQkBkISfQn-102" value="ratePlan" style="verticalAlign=bottom;edgeStyle=elbowEdgeStyle;elbow=vertical;curved=0;rounded=0;dashed=1;dashPattern=2 3;endArrow=block;" edge="1" parent="1">
          <mxGeometry relative="1" as="geometry">
            <Array as="points">
              <mxPoint x="2046.75" y="3259" />
            </Array>
            <mxPoint x="2188.2499999999995" y="3259" as="sourcePoint" />
            <mxPoint x="1880" y="3259" as="targetPoint" />
          </mxGeometry>
        </mxCell>
        <mxCell id="OCD_fPxrB7GQkBkISfQn-103" value="ratePlan" style="verticalAlign=bottom;edgeStyle=elbowEdgeStyle;elbow=vertical;curved=0;rounded=0;dashed=1;dashPattern=2 3;endArrow=block;" edge="1" parent="1">
          <mxGeometry relative="1" as="geometry">
            <Array as="points">
              <mxPoint x="1796.75" y="3299" />
            </Array>
            <mxPoint x="1880" y="3299" as="sourcePoint" />
            <mxPoint x="1630" y="3299" as="targetPoint" />
          </mxGeometry>
        </mxCell>
        <mxCell id="OCD_fPxrB7GQkBkISfQn-104" value="ratePlan" style="verticalAlign=bottom;edgeStyle=elbowEdgeStyle;elbow=vertical;curved=0;rounded=0;dashed=1;dashPattern=2 3;endArrow=block;" edge="1" parent="1">
          <mxGeometry relative="1" as="geometry">
            <Array as="points">
              <mxPoint x="1546.75" y="3349" />
            </Array>
            <mxPoint x="1630" y="3349" as="sourcePoint" />
            <mxPoint x="408" y="3349" as="targetPoint" />
          </mxGeometry>
        </mxCell>
        <mxCell id="OCD_fPxrB7GQkBkISfQn-105" value="display rate plan update form" style="verticalAlign=bottom;edgeStyle=elbowEdgeStyle;elbow=vertical;curved=0;rounded=0;dashed=1;dashPattern=2 3;endArrow=block;" edge="1" parent="1">
          <mxGeometry relative="1" as="geometry">
            <Array as="points">
              <mxPoint x="268" y="3389" />
            </Array>
            <mxPoint x="409" y="3389" as="sourcePoint" />
            <mxPoint x="37" y="3389" as="targetPoint" />
          </mxGeometry>
        </mxCell>
        <mxCell id="OCD_fPxrB7GQkBkISfQn-118" value="update rate plan details" style="endArrow=classic;html=1;rounded=0;" edge="1" parent="1">
          <mxGeometry x="-0.0139" y="16" width="50" height="50" relative="1" as="geometry">
            <mxPoint x="36.66666666666674" y="3435" as="sourcePoint" />
            <mxPoint x="408.5" y="3435" as="targetPoint" />
            <mxPoint x="1" as="offset" />
          </mxGeometry>
        </mxCell>
        <mxCell id="OCD_fPxrB7GQkBkISfQn-119" value="update(id, updateRatePlanDto)" style="endArrow=classic;html=1;rounded=0;" edge="1" parent="1">
          <mxGeometry x="-0.0139" y="16" width="50" height="50" relative="1" as="geometry">
            <mxPoint x="406.66666666666674" y="3475" as="sourcePoint" />
            <mxPoint x="1629" y="3475" as="targetPoint" />
            <mxPoint x="1" as="offset" />
          </mxGeometry>
        </mxCell>
        <mxCell id="OCD_fPxrB7GQkBkISfQn-120" value="update(id, updateRatePlanDto)" style="endArrow=classic;html=1;rounded=0;" edge="1" parent="1">
          <mxGeometry x="-0.0139" y="16" width="50" height="50" relative="1" as="geometry">
            <mxPoint x="1628.8888888888887" y="3505" as="sourcePoint" />
            <mxPoint x="1881.5" y="3505" as="targetPoint" />
            <mxPoint x="1" as="offset" />
          </mxGeometry>
        </mxCell>
        <mxCell id="OCD_fPxrB7GQkBkISfQn-121" value="update(id, updateRatePlanDto)" style="endArrow=classic;html=1;rounded=0;" edge="1" parent="1">
          <mxGeometry x="-0.0139" y="16" width="50" height="50" relative="1" as="geometry">
            <mxPoint x="1879.9988888888886" y="3535" as="sourcePoint" />
            <mxPoint x="2190" y="3535" as="targetPoint" />
            <mxPoint x="1" as="offset" />
          </mxGeometry>
        </mxCell>
        <mxCell id="OCD_fPxrB7GQkBkISfQn-122" value="affectedRow" style="verticalAlign=bottom;edgeStyle=elbowEdgeStyle;elbow=vertical;curved=0;rounded=0;dashed=1;dashPattern=2 3;endArrow=block;" edge="1" parent="1">
          <mxGeometry relative="1" as="geometry">
            <Array as="points">
              <mxPoint x="2046.75" y="3569" />
            </Array>
            <mxPoint x="2188.2499999999995" y="3569" as="sourcePoint" />
            <mxPoint x="1880" y="3569" as="targetPoint" />
          </mxGeometry>
        </mxCell>
        <mxCell id="OCD_fPxrB7GQkBkISfQn-123" value="ratePlan" style="verticalAlign=bottom;edgeStyle=elbowEdgeStyle;elbow=vertical;curved=0;rounded=0;dashed=1;dashPattern=2 3;endArrow=block;" edge="1" parent="1">
          <mxGeometry relative="1" as="geometry">
            <Array as="points">
              <mxPoint x="1796.75" y="3669" />
            </Array>
            <mxPoint x="1880" y="3669" as="sourcePoint" />
            <mxPoint x="1630" y="3669" as="targetPoint" />
          </mxGeometry>
        </mxCell>
        <mxCell id="OCD_fPxrB7GQkBkISfQn-124" value="ratePlan" style="verticalAlign=bottom;edgeStyle=elbowEdgeStyle;elbow=vertical;curved=0;rounded=0;dashed=1;dashPattern=2 3;endArrow=block;" edge="1" parent="1">
          <mxGeometry relative="1" as="geometry">
            <Array as="points">
              <mxPoint x="1546.75" y="3719" />
            </Array>
            <mxPoint x="1630" y="3719" as="sourcePoint" />
            <mxPoint x="408" y="3719" as="targetPoint" />
          </mxGeometry>
        </mxCell>
        <mxCell id="OCD_fPxrB7GQkBkISfQn-125" value="display success message" style="verticalAlign=bottom;edgeStyle=elbowEdgeStyle;elbow=vertical;curved=0;rounded=0;dashed=1;dashPattern=2 3;endArrow=block;" edge="1" parent="1">
          <mxGeometry relative="1" as="geometry">
            <Array as="points">
              <mxPoint x="268" y="3759" />
            </Array>
            <mxPoint x="409" y="3759" as="sourcePoint" />
            <mxPoint x="37" y="3759" as="targetPoint" />
          </mxGeometry>
        </mxCell>
        <mxCell id="OCD_fPxrB7GQkBkISfQn-126" value="findOne(id)" style="endArrow=classic;html=1;rounded=0;" edge="1" parent="1">
          <mxGeometry x="-0.0139" y="16" width="50" height="50" relative="1" as="geometry">
            <mxPoint x="1878.8888888888887" y="3605" as="sourcePoint" />
            <mxPoint x="2189.5" y="3605" as="targetPoint" />
            <mxPoint x="1" as="offset" />
          </mxGeometry>
        </mxCell>
        <mxCell id="OCD_fPxrB7GQkBkISfQn-127" value="ratePlan" style="verticalAlign=bottom;edgeStyle=elbowEdgeStyle;elbow=vertical;curved=0;rounded=0;dashed=1;dashPattern=2 3;endArrow=block;" edge="1" parent="1">
          <mxGeometry relative="1" as="geometry">
            <Array as="points">
              <mxPoint x="2046.75" y="3639" />
            </Array>
            <mxPoint x="2188.2499999999995" y="3639" as="sourcePoint" />
            <mxPoint x="1880" y="3639" as="targetPoint" />
          </mxGeometry>
        </mxCell>
        <mxCell id="OCD_fPxrB7GQkBkISfQn-130" value="delete(id)" style="endArrow=classic;html=1;rounded=0;" edge="1" parent="1">
          <mxGeometry x="-0.0139" y="16" width="50" height="50" relative="1" as="geometry">
            <mxPoint x="406.66666666666674" y="4005" as="sourcePoint" />
            <mxPoint x="1629" y="4005" as="targetPoint" />
            <mxPoint x="1" as="offset" />
          </mxGeometry>
        </mxCell>
        <mxCell id="OCD_fPxrB7GQkBkISfQn-131" value="ratePlan" style="verticalAlign=bottom;edgeStyle=elbowEdgeStyle;elbow=vertical;curved=0;rounded=0;dashed=1;dashPattern=2 3;endArrow=block;" edge="1" parent="1">
          <mxGeometry relative="1" as="geometry">
            <Array as="points">
              <mxPoint x="1546.75" y="4249" />
            </Array>
            <mxPoint x="1630" y="4249" as="sourcePoint" />
            <mxPoint x="408" y="4249" as="targetPoint" />
          </mxGeometry>
        </mxCell>
        <mxCell id="OCD_fPxrB7GQkBkISfQn-132" value="display success message" style="verticalAlign=bottom;edgeStyle=elbowEdgeStyle;elbow=vertical;curved=0;rounded=0;dashed=1;dashPattern=2 3;endArrow=block;" edge="1" parent="1">
          <mxGeometry relative="1" as="geometry">
            <Array as="points">
              <mxPoint x="268" y="4289" />
            </Array>
            <mxPoint x="409" y="4289" as="sourcePoint" />
            <mxPoint x="37" y="4289" as="targetPoint" />
          </mxGeometry>
        </mxCell>
        <mxCell id="OCD_fPxrB7GQkBkISfQn-133" value="delete(id)" style="endArrow=classic;html=1;rounded=0;" edge="1" parent="1">
          <mxGeometry x="-0.0139" y="16" width="50" height="50" relative="1" as="geometry">
            <mxPoint x="1628.8888888888887" y="4035" as="sourcePoint" />
            <mxPoint x="1881.5" y="4035" as="targetPoint" />
            <mxPoint x="1" as="offset" />
          </mxGeometry>
        </mxCell>
        <mxCell id="OCD_fPxrB7GQkBkISfQn-134" value="delete(id)" style="endArrow=classic;html=1;rounded=0;" edge="1" parent="1">
          <mxGeometry x="-0.0139" y="16" width="50" height="50" relative="1" as="geometry">
            <mxPoint x="1879.9988888888886" y="4065" as="sourcePoint" />
            <mxPoint x="2190" y="4065" as="targetPoint" />
            <mxPoint x="1" as="offset" />
          </mxGeometry>
        </mxCell>
        <mxCell id="OCD_fPxrB7GQkBkISfQn-135" value="ratePlan" style="verticalAlign=bottom;edgeStyle=elbowEdgeStyle;elbow=vertical;curved=0;rounded=0;dashed=1;dashPattern=2 3;endArrow=block;" edge="1" parent="1">
          <mxGeometry relative="1" as="geometry">
            <Array as="points">
              <mxPoint x="2046.75" y="4169" />
            </Array>
            <mxPoint x="2188.2499999999995" y="4169" as="sourcePoint" />
            <mxPoint x="1880" y="4169" as="targetPoint" />
          </mxGeometry>
        </mxCell>
        <mxCell id="OCD_fPxrB7GQkBkISfQn-136" value="ratePlan" style="verticalAlign=bottom;edgeStyle=elbowEdgeStyle;elbow=vertical;curved=0;rounded=0;dashed=1;dashPattern=2 3;endArrow=block;" edge="1" parent="1">
          <mxGeometry relative="1" as="geometry">
            <Array as="points">
              <mxPoint x="1796.75" y="4199" />
            </Array>
            <mxPoint x="1880" y="4199" as="sourcePoint" />
            <mxPoint x="1630" y="4199" as="targetPoint" />
          </mxGeometry>
        </mxCell>
        <mxCell id="OCD_fPxrB7GQkBkISfQn-137" value="affectedRow" style="verticalAlign=bottom;edgeStyle=elbowEdgeStyle;elbow=vertical;curved=0;rounded=0;dashed=1;dashPattern=2 3;endArrow=block;" edge="1" parent="1">
          <mxGeometry relative="1" as="geometry">
            <Array as="points">
              <mxPoint x="2046.75" y="4099" />
            </Array>
            <mxPoint x="2188.2499999999995" y="4099" as="sourcePoint" />
            <mxPoint x="1880" y="4099" as="targetPoint" />
          </mxGeometry>
        </mxCell>
        <mxCell id="OCD_fPxrB7GQkBkISfQn-138" value="findOne(id)" style="endArrow=classic;html=1;rounded=0;" edge="1" parent="1">
          <mxGeometry x="-0.0139" y="16" width="50" height="50" relative="1" as="geometry">
            <mxPoint x="1878.8888888888887" y="4135" as="sourcePoint" />
            <mxPoint x="2189.5" y="4135" as="targetPoint" />
            <mxPoint x="1" as="offset" />
          </mxGeometry>
        </mxCell>
        <mxCell id="OCD_fPxrB7GQkBkISfQn-141" value="" style="rounded=0;whiteSpace=wrap;html=1;" vertex="1" parent="1">
          <mxGeometry x="404" y="144" width="10" height="277" as="geometry" />
        </mxCell>
        <mxCell id="OCD_fPxrB7GQkBkISfQn-142" value="" style="rounded=0;whiteSpace=wrap;html=1;" vertex="1" parent="1">
          <mxGeometry x="724.5" y="180" width="10" height="208" as="geometry" />
        </mxCell>
        <mxCell id="OCD_fPxrB7GQkBkISfQn-145" value="" style="rounded=0;whiteSpace=wrap;html=1;" vertex="1" parent="1">
          <mxGeometry x="977" y="227" width="10" height="136" as="geometry" />
        </mxCell>
        <mxCell id="OCD_fPxrB7GQkBkISfQn-146" value="" style="rounded=0;whiteSpace=wrap;html=1;" vertex="1" parent="1">
          <mxGeometry x="404" y="480" width="10" height="680" as="geometry" />
        </mxCell>
        <mxCell id="OCD_fPxrB7GQkBkISfQn-147" value="display page content" style="verticalAlign=bottom;edgeStyle=elbowEdgeStyle;elbow=vertical;curved=0;rounded=0;dashed=1;dashPattern=2 3;endArrow=block;movable=1;resizable=1;rotatable=1;deletable=1;editable=1;locked=0;connectable=1;" edge="1" parent="1">
          <mxGeometry relative="1" as="geometry">
            <Array as="points">
              <mxPoint x="90" y="1579" />
            </Array>
            <mxPoint x="409" y="1578" as="sourcePoint" />
            <mxPoint x="36.57142857142844" y="1579" as="targetPoint" />
          </mxGeometry>
        </mxCell>
        <mxCell id="OCD_fPxrB7GQkBkISfQn-149" value="" style="rounded=0;whiteSpace=wrap;html=1;" vertex="1" parent="1">
          <mxGeometry x="724.5" y="530" width="10" height="440" as="geometry" />
        </mxCell>
        <mxCell id="OCD_fPxrB7GQkBkISfQn-152" value="" style="rounded=0;whiteSpace=wrap;html=1;" vertex="1" parent="1">
          <mxGeometry x="1287" y="634" width="10" height="76" as="geometry" />
        </mxCell>
        <mxCell id="OCD_fPxrB7GQkBkISfQn-155" value="" style="rounded=0;whiteSpace=wrap;html=1;" vertex="1" parent="1">
          <mxGeometry x="404" y="1710" width="10" height="1180" as="geometry" />
        </mxCell>
        <mxCell id="OCD_fPxrB7GQkBkISfQn-156" value="" style="rounded=0;whiteSpace=wrap;html=1;" vertex="1" parent="1">
          <mxGeometry x="1624" y="2304" width="10" height="203" as="geometry" />
        </mxCell>
        <mxCell id="OCD_fPxrB7GQkBkISfQn-157" value="" style="rounded=0;whiteSpace=wrap;html=1;" vertex="1" parent="1">
          <mxGeometry x="1874" y="2336" width="10" height="123" as="geometry" />
        </mxCell>
        <mxCell id="OCD_fPxrB7GQkBkISfQn-158" value="" style="rounded=0;whiteSpace=wrap;html=1;" vertex="1" parent="1">
          <mxGeometry x="1874" y="2686" width="10" height="123" as="geometry" />
        </mxCell>
        <mxCell id="OCD_fPxrB7GQkBkISfQn-159" value="" style="rounded=0;whiteSpace=wrap;html=1;" vertex="1" parent="1">
          <mxGeometry x="2184" y="2726" width="10" height="53" as="geometry" />
        </mxCell>
        <mxCell id="OCD_fPxrB7GQkBkISfQn-160" value="" style="rounded=0;whiteSpace=wrap;html=1;" vertex="1" parent="1">
          <mxGeometry x="2184" y="2366" width="10" height="53" as="geometry" />
        </mxCell>
        <mxCell id="OCD_fPxrB7GQkBkISfQn-161" value="" style="rounded=0;whiteSpace=wrap;html=1;" vertex="1" parent="1">
          <mxGeometry x="1624" y="2644" width="10" height="213" as="geometry" />
        </mxCell>
        <mxCell id="OCD_fPxrB7GQkBkISfQn-164" value="" style="rounded=0;whiteSpace=wrap;html=1;" vertex="1" parent="1">
          <mxGeometry x="977" y="582" width="10" height="323" as="geometry" />
        </mxCell>
        <mxCell id="OCD_fPxrB7GQkBkISfQn-172" value="Access Dashboard" style="verticalAlign=bottom;edgeStyle=elbowEdgeStyle;elbow=vertical;curved=0;rounded=0;endArrow=block;" edge="1" parent="1">
          <mxGeometry relative="1" as="geometry">
            <Array as="points">
              <mxPoint x="261" y="1247" />
            </Array>
            <mxPoint x="36.18181818181847" y="1247" as="sourcePoint" />
            <mxPoint x="408.5" y="1247" as="targetPoint" />
          </mxGeometry>
        </mxCell>
        <mxCell id="OCD_fPxrB7GQkBkISfQn-173" value="getHotelUserData(token)" style="verticalAlign=bottom;edgeStyle=elbowEdgeStyle;elbow=vertical;curved=0;rounded=0;endArrow=block;" edge="1" parent="1">
          <mxGeometry x="-0.0016" relative="1" as="geometry">
            <Array as="points">
              <mxPoint x="578" y="1281" />
            </Array>
            <mxPoint x="407.5" y="1281" as="sourcePoint" />
            <mxPoint x="729" y="1281" as="targetPoint" />
            <mxPoint as="offset" />
          </mxGeometry>
        </mxCell>
        <mxCell id="OCD_fPxrB7GQkBkISfQn-174" value="getHotelUserData(token)" style="verticalAlign=bottom;edgeStyle=elbowEdgeStyle;elbow=vertical;curved=0;rounded=0;endArrow=block;" edge="1" parent="1">
          <mxGeometry relative="1" as="geometry">
            <Array as="points">
              <mxPoint x="864" y="1333" />
            </Array>
            <mxPoint x="728" y="1333" as="sourcePoint" />
            <mxPoint x="981.5" y="1333" as="targetPoint" />
          </mxGeometry>
        </mxCell>
        <mxCell id="OCD_fPxrB7GQkBkISfQn-175" value="Decode JWT token" style="curved=1;endArrow=block;rounded=0;" edge="1" parent="1">
          <mxGeometry relative="1" as="geometry">
            <Array as="points">
              <mxPoint x="1037" y="1353" />
              <mxPoint x="1037" y="1383" />
            </Array>
            <mxPoint x="984.5" y="1353" as="sourcePoint" />
            <mxPoint x="984.5" y="1383" as="targetPoint" />
          </mxGeometry>
        </mxCell>
        <mxCell id="OCD_fPxrB7GQkBkISfQn-179" value="" style="rounded=0;whiteSpace=wrap;html=1;" vertex="1" parent="1">
          <mxGeometry x="404" y="1244" width="10" height="337" as="geometry" />
        </mxCell>
        <mxCell id="OCD_fPxrB7GQkBkISfQn-180" value="" style="rounded=0;whiteSpace=wrap;html=1;" vertex="1" parent="1">
          <mxGeometry x="724.5" y="1280" width="10" height="268" as="geometry" />
        </mxCell>
        <mxCell id="OCD_fPxrB7GQkBkISfQn-181" value="" style="rounded=0;whiteSpace=wrap;html=1;" vertex="1" parent="1">
          <mxGeometry x="977" y="1327" width="10" height="193" as="geometry" />
        </mxCell>
        <mxCell id="OCD_fPxrB7GQkBkISfQn-182" value="redirect to dashboard page" style="verticalAlign=bottom;edgeStyle=elbowEdgeStyle;elbow=vertical;curved=0;rounded=0;dashed=1;dashPattern=2 3;endArrow=block;movable=1;resizable=1;rotatable=1;deletable=1;editable=1;locked=0;connectable=1;" edge="1" parent="1">
          <mxGeometry relative="1" as="geometry">
            <Array as="points">
              <mxPoint x="90" y="1159" />
            </Array>
            <mxPoint x="409" y="1158" as="sourcePoint" />
            <mxPoint x="36.57142857142844" y="1159" as="targetPoint" />
          </mxGeometry>
        </mxCell>
        <mxCell id="OCD_fPxrB7GQkBkISfQn-184" value="[update rate plan]" style="shape=line;whiteSpace=wrap;verticalAlign=top;labelPosition=center;verticalLabelPosition=middle;align=center;strokeColor=#B3B3B3;strokeWidth=3;" vertex="1" parent="1">
          <mxGeometry x="-36" y="2920" width="2276" height="7.72" as="geometry" />
        </mxCell>
        <mxCell id="OCD_fPxrB7GQkBkISfQn-185" value="&lt;div&gt;access rate plan search page&lt;/div&gt;" style="endArrow=classic;html=1;rounded=0;" edge="1" parent="1">
          <mxGeometry x="-0.0139" y="16" width="50" height="50" relative="1" as="geometry">
            <mxPoint x="36.66666666666674" y="2985" as="sourcePoint" />
            <mxPoint x="408.5" y="2985" as="targetPoint" />
            <mxPoint x="1" as="offset" />
          </mxGeometry>
        </mxCell>
        <mxCell id="OCD_fPxrB7GQkBkISfQn-186" value="Verify permissions" style="curved=1;endArrow=block;rounded=0;" edge="1" parent="1">
          <mxGeometry relative="1" as="geometry">
            <Array as="points">
              <mxPoint x="460" y="3010" />
              <mxPoint x="460" y="3040" />
            </Array>
            <mxPoint x="407.5" y="3010" as="sourcePoint" />
            <mxPoint x="407.5" y="3040" as="targetPoint" />
          </mxGeometry>
        </mxCell>
        <mxCell id="OCD_fPxrB7GQkBkISfQn-187" value="Verify permissions" style="curved=1;endArrow=block;rounded=0;" edge="1" parent="1">
          <mxGeometry relative="1" as="geometry">
            <Array as="points">
              <mxPoint x="460" y="3090" />
              <mxPoint x="460" y="3120" />
            </Array>
            <mxPoint x="407.5" y="3090" as="sourcePoint" />
            <mxPoint x="407.5" y="3120" as="targetPoint" />
          </mxGeometry>
        </mxCell>
        <mxCell id="OCD_fPxrB7GQkBkISfQn-188" value="" style="rounded=0;whiteSpace=wrap;html=1;" vertex="1" parent="1">
          <mxGeometry x="404" y="2980" width="10" height="780" as="geometry" />
        </mxCell>
        <mxCell id="OCD_fPxrB7GQkBkISfQn-189" value="" style="rounded=0;whiteSpace=wrap;html=1;" vertex="1" parent="1">
          <mxGeometry x="1624" y="3144" width="10" height="206" as="geometry" />
        </mxCell>
        <mxCell id="OCD_fPxrB7GQkBkISfQn-190" value="" style="rounded=0;whiteSpace=wrap;html=1;" vertex="1" parent="1">
          <mxGeometry x="1624" y="3474" width="10" height="246" as="geometry" />
        </mxCell>
        <mxCell id="OCD_fPxrB7GQkBkISfQn-191" value="" style="rounded=0;whiteSpace=wrap;html=1;" vertex="1" parent="1">
          <mxGeometry x="1877" y="3176" width="10" height="123" as="geometry" />
        </mxCell>
        <mxCell id="OCD_fPxrB7GQkBkISfQn-192" value="" style="rounded=0;whiteSpace=wrap;html=1;" vertex="1" parent="1">
          <mxGeometry x="1877" y="3506" width="10" height="163" as="geometry" />
        </mxCell>
        <mxCell id="OCD_fPxrB7GQkBkISfQn-193" value="" style="rounded=0;whiteSpace=wrap;html=1;" vertex="1" parent="1">
          <mxGeometry x="2184" y="3206" width="10" height="53" as="geometry" />
        </mxCell>
        <mxCell id="OCD_fPxrB7GQkBkISfQn-194" value="" style="rounded=0;whiteSpace=wrap;html=1;" vertex="1" parent="1">
          <mxGeometry x="2184" y="3536" width="10" height="33" as="geometry" />
        </mxCell>
        <mxCell id="OCD_fPxrB7GQkBkISfQn-195" value="" style="rounded=0;whiteSpace=wrap;html=1;" vertex="1" parent="1">
          <mxGeometry x="2184" y="3606" width="10" height="33" as="geometry" />
        </mxCell>
        <mxCell id="OCD_fPxrB7GQkBkISfQn-196" value="" style="rounded=0;whiteSpace=wrap;html=1;" vertex="1" parent="1">
          <mxGeometry x="1286" y="1427" width="10" height="36" as="geometry" />
        </mxCell>
        <mxCell id="OCD_fPxrB7GQkBkISfQn-197" value="[delete rate plan]" style="shape=line;whiteSpace=wrap;verticalAlign=top;labelPosition=center;verticalLabelPosition=middle;align=center;strokeColor=#B3B3B3;strokeWidth=3;" vertex="1" parent="1">
          <mxGeometry x="-36" y="3790" width="2276" height="7.72" as="geometry" />
        </mxCell>
        <mxCell id="OCD_fPxrB7GQkBkISfQn-198" value="&lt;div&gt;access rate plan search page&lt;/div&gt;" style="endArrow=classic;html=1;rounded=0;" edge="1" parent="1">
          <mxGeometry x="-0.0139" y="16" width="50" height="50" relative="1" as="geometry">
            <mxPoint x="36.66666666666674" y="3845" as="sourcePoint" />
            <mxPoint x="408.5" y="3845" as="targetPoint" />
            <mxPoint x="1" as="offset" />
          </mxGeometry>
        </mxCell>
        <mxCell id="OCD_fPxrB7GQkBkISfQn-199" value="Verify permissions" style="curved=1;endArrow=block;rounded=0;" edge="1" parent="1">
          <mxGeometry relative="1" as="geometry">
            <Array as="points">
              <mxPoint x="460" y="3870" />
              <mxPoint x="460" y="3900" />
            </Array>
            <mxPoint x="407.5" y="3870" as="sourcePoint" />
            <mxPoint x="407.5" y="3900" as="targetPoint" />
          </mxGeometry>
        </mxCell>
        <mxCell id="OCD_fPxrB7GQkBkISfQn-200" value="Verify permissions" style="curved=1;endArrow=block;rounded=0;" edge="1" parent="1">
          <mxGeometry relative="1" as="geometry">
            <Array as="points">
              <mxPoint x="460" y="3950" />
              <mxPoint x="460" y="3980" />
            </Array>
            <mxPoint x="407.5" y="3950" as="sourcePoint" />
            <mxPoint x="407.5" y="3980" as="targetPoint" />
          </mxGeometry>
        </mxCell>
        <mxCell id="OCD_fPxrB7GQkBkISfQn-201" value="select rate plan to delete" style="endArrow=classic;html=1;rounded=0;" edge="1" parent="1">
          <mxGeometry x="-0.0139" y="16" width="50" height="50" relative="1" as="geometry">
            <mxPoint x="36.66666666666674" y="3925" as="sourcePoint" />
            <mxPoint x="408.5" y="3925" as="targetPoint" />
            <mxPoint x="1" as="offset" />
          </mxGeometry>
        </mxCell>
        <mxCell id="OCD_fPxrB7GQkBkISfQn-202" value="" style="rounded=0;whiteSpace=wrap;html=1;" vertex="1" parent="1">
          <mxGeometry x="404" y="3842" width="10" height="448" as="geometry" />
        </mxCell>
        <mxCell id="OCD_fPxrB7GQkBkISfQn-205" value="" style="rounded=0;whiteSpace=wrap;html=1;" vertex="1" parent="1">
          <mxGeometry x="1624" y="4004" width="10" height="246" as="geometry" />
        </mxCell>
        <mxCell id="OCD_fPxrB7GQkBkISfQn-206" value="" style="rounded=0;whiteSpace=wrap;html=1;" vertex="1" parent="1">
          <mxGeometry x="1877" y="4036" width="10" height="163" as="geometry" />
        </mxCell>
        <mxCell id="OCD_fPxrB7GQkBkISfQn-207" value="" style="rounded=0;whiteSpace=wrap;html=1;" vertex="1" parent="1">
          <mxGeometry x="2184" y="4066" width="10" height="33" as="geometry" />
        </mxCell>
        <mxCell id="OCD_fPxrB7GQkBkISfQn-208" value="" style="rounded=0;whiteSpace=wrap;html=1;" vertex="1" parent="1">
          <mxGeometry x="2184" y="4136" width="10" height="33" as="geometry" />
        </mxCell>
      </root>
    </mxGraphModel>
  </diagram>
</mxfile>
